<?xml version="1.0" encoding="utf-8" standalone="no"?>
<!DOCTYPE svg PUBLIC "-//W3C//DTD SVG 1.1//EN"
  "http://www.w3.org/Graphics/SVG/1.1/DTD/svg11.dtd">
<svg xmlns:xlink="http://www.w3.org/1999/xlink" width="442.64375pt" height="460.488125pt" viewBox="0 0 442.64375 460.488125" xmlns="http://www.w3.org/2000/svg" version="1.1">
 <metadata>
  <rdf:RDF xmlns:dc="http://purl.org/dc/elements/1.1/" xmlns:cc="http://creativecommons.org/ns#" xmlns:rdf="http://www.w3.org/1999/02/22-rdf-syntax-ns#">
   <cc:Work>
    <dc:type rdf:resource="http://purl.org/dc/dcmitype/StillImage"/>
    <dc:date>2025-05-21T14:53:49.636856</dc:date>
    <dc:format>image/svg+xml</dc:format>
    <dc:creator>
     <cc:Agent>
      <dc:title>Matplotlib v3.6.2, https://matplotlib.org/</dc:title>
     </cc:Agent>
    </dc:creator>
   </cc:Work>
  </rdf:RDF>
 </metadata>
 <defs>
  <style type="text/css">*{stroke-linejoin: round; stroke-linecap: butt}</style>
 </defs>
 <g id="figure_1">
  <g id="patch_1">
   <path d="M 0 460.488125 
L 442.64375 460.488125 
L 442.64375 0 
L 0 0 
L 0 460.488125 
z
" style="fill: none"/>
  </g>
  <g id="axes_1">
   <g id="patch_2">
    <path d="M 61.7 406.890625 
L 435.44375 406.890625 
L 435.44375 28.396875 
L 61.7 28.396875 
z
" style="fill: #ffffff"/>
   </g>
   <g id="PolyCollection_1">
    <path d="M 78.688352 159.882336 
L 78.688352 389.686364 
L 82.120343 387.230231 
L 85.552333 384.774098 
L 88.984323 382.317966 
L 92.416314 379.861833 
L 95.848304 377.4057 
L 99.280294 374.949568 
L 102.712285 372.658525 
L 106.144275 370.433874 
L 109.576265 368.209223 
L 113.008256 365.984572 
L 116.440246 363.759922 
L 119.872237 361.535271 
L 123.304227 359.31062 
L 126.736217 357.085969 
L 130.168208 354.861318 
L 133.600198 352.636668 
L 137.032188 350.412017 
L 140.464179 348.187366 
L 143.896169 345.797635 
L 147.328159 343.375353 
L 150.76015 340.953071 
L 154.19214 338.530789 
L 157.624131 336.160358 
L 161.056121 334.036903 
L 164.488111 331.91788 
L 167.920102 329.750998 
L 171.352092 327.178749 
L 174.784082 324.939372 
L 178.216073 322.699995 
L 181.648063 320.454 
L 185.080053 318.200749 
L 188.512044 315.76826 
L 191.944034 313.114191 
L 195.376024 310.454508 
L 198.808015 307.79233 
L 202.240005 305.130152 
L 205.671996 302.467974 
L 209.103986 299.805796 
L 212.535976 297.272716 
L 215.967967 294.841743 
L 219.399957 292.410771 
L 222.831947 289.979799 
L 226.263938 287.548826 
L 229.695928 285.177504 
L 233.127918 283.005001 
L 236.559909 280.448484 
L 239.991899 277.891968 
L 243.423889 275.426046 
L 246.85588 273.005621 
L 250.28787 270.585195 
L 253.719861 268.29155 
L 257.151851 266.714663 
L 260.583841 264.861347 
L 264.015832 262.306637 
L 267.447822 259.740117 
L 270.879812 257.170557 
L 274.311803 254.600997 
L 277.743793 252.794951 
L 281.175783 251.282856 
L 284.607774 249.760191 
L 288.039764 247.710017 
L 291.471754 245.985306 
L 294.903745 243.160182 
L 298.335735 240.271286 
L 301.767726 237.927322 
L 305.199716 236.373597 
L 308.631706 234.757624 
L 312.063697 233.171457 
L 315.495687 231.538587 
L 318.927677 230.009789 
L 322.359668 228.410508 
L 325.791658 226.24811 
L 329.223648 224.511495 
L 332.655639 222.355449 
L 336.087629 220.437463 
L 339.519619 219.434455 
L 342.95161 218.011503 
L 346.3836 216.956784 
L 349.815591 216.10131 
L 353.247581 215.522373 
L 356.679571 214.454952 
L 360.111562 213.794853 
L 363.543552 213.321539 
L 366.975542 213.238885 
L 370.407533 212.779054 
L 373.839523 212.439733 
L 377.271513 212.137092 
L 380.703504 211.832714 
L 384.135494 211.513546 
L 387.567485 211.640344 
L 390.999475 211.640999 
L 394.431465 211.286622 
L 397.863456 210.937469 
L 401.295446 210.585704 
L 404.727436 210.682655 
L 408.159427 210.806267 
L 411.591417 210.608281 
L 415.023407 210.647365 
L 418.455398 210.696225 
L 418.455398 151.592747 
L 418.455398 151.592747 
L 415.023407 153.101416 
L 411.591417 154.452191 
L 408.159427 155.969107 
L 404.727436 157.437979 
L 401.295446 158.84915 
L 397.863456 160.097705 
L 394.431465 162.340686 
L 390.999475 164.038745 
L 387.567485 165.706892 
L 384.135494 166.842994 
L 380.703504 167.592761 
L 377.271513 168.637144 
L 373.839523 169.547378 
L 370.407533 170.811014 
L 366.975542 171.12892 
L 363.543552 171.700908 
L 360.111562 172.231824 
L 356.679571 172.532404 
L 353.247581 173.082456 
L 349.815591 173.248155 
L 346.3836 173.547995 
L 342.95161 174.170602 
L 339.519619 174.772218 
L 336.087629 175.084219 
L 332.655639 175.103907 
L 329.223648 175.366446 
L 325.791658 175.643738 
L 322.359668 175.677965 
L 318.927677 175.870384 
L 315.495687 175.589134 
L 312.063697 175.472899 
L 308.631706 175.656081 
L 305.199716 175.786709 
L 301.767726 176.038879 
L 298.335735 176.202051 
L 294.903745 175.92439 
L 291.471754 175.968725 
L 288.039764 176.046461 
L 284.607774 176.04205 
L 281.175783 176.103318 
L 277.743793 175.878828 
L 274.311803 175.972636 
L 270.879812 175.678492 
L 267.447822 175.385566 
L 264.015832 175.056477 
L 260.583841 174.732223 
L 257.151851 174.447829 
L 253.719861 174.207702 
L 250.28787 174.063289 
L 246.85588 174.102952 
L 243.423889 173.575966 
L 239.991899 173.169684 
L 236.559909 173.03666 
L 233.127918 172.464975 
L 229.695928 172.151267 
L 226.263938 171.850474 
L 222.831947 171.5522 
L 219.399957 171.257387 
L 215.967967 170.850212 
L 212.535976 170.268027 
L 209.103986 169.685843 
L 205.671996 169.301444 
L 202.240005 169.002585 
L 198.808015 168.713764 
L 195.376024 168.424944 
L 191.944034 168.136123 
L 188.512044 167.847303 
L 185.080053 167.68022 
L 181.648063 167.588857 
L 178.216073 167.497493 
L 174.784082 167.40613 
L 171.352092 167.159359 
L 167.920102 166.868583 
L 164.488111 166.625342 
L 161.056121 166.449785 
L 157.624131 166.27577 
L 154.19214 165.926207 
L 150.76015 165.435269 
L 147.328159 165.339787 
L 143.896169 165.15095 
L 140.464179 164.810036 
L 137.032188 164.401447 
L 133.600198 164.133034 
L 130.168208 163.922035 
L 126.736217 163.710202 
L 123.304227 163.41131 
L 119.872237 163.110081 
L 116.440246 162.810948 
L 113.008256 162.512961 
L 109.576265 162.215319 
L 106.144275 161.978118 
L 102.712285 161.785866 
L 99.280294 161.59398 
L 95.848304 161.234082 
L 92.416314 161.007878 
L 88.984323 160.785899 
L 85.552333 160.563921 
L 82.120343 160.341942 
L 78.688352 159.882336 
z
" clip-path="url(#p8b60f36606)" style="fill: #8e8e8e; fill-opacity: 0.15"/>
   </g>
   <g id="matplotlib.axis_1">
    <g id="xtick_1">
     <g id="line2d_1">
      <defs>
       <path id="mb87aa8b225" d="M 0 0 
L 0 3.5 
" style="stroke: #000000; stroke-width: 0.8"/>
      </defs>
      <g>
       <use xlink:href="#mb87aa8b225" x="126.218007" y="406.890625" style="stroke: #000000; stroke-width: 0.8"/>
      </g>
     </g>
     <g id="text_1">
      <!-- −0.4 -->
      <g transform="translate(106.791757 426.048125) scale(0.16 -0.16)">
       <defs>
        <path id="DejaVuSans-2212" d="M 678 2272 
L 4684 2272 
L 4684 1741 
L 678 1741 
L 678 2272 
z
" transform="scale(0.015625)"/>
        <path id="DejaVuSans-30" d="M 2034 4250 
Q 1547 4250 1301 3770 
Q 1056 3291 1056 2328 
Q 1056 1369 1301 889 
Q 1547 409 2034 409 
Q 2525 409 2770 889 
Q 3016 1369 3016 2328 
Q 3016 3291 2770 3770 
Q 2525 4250 2034 4250 
z
M 2034 4750 
Q 2819 4750 3233 4129 
Q 3647 3509 3647 2328 
Q 3647 1150 3233 529 
Q 2819 -91 2034 -91 
Q 1250 -91 836 529 
Q 422 1150 422 2328 
Q 422 3509 836 4129 
Q 1250 4750 2034 4750 
z
" transform="scale(0.015625)"/>
        <path id="DejaVuSans-2e" d="M 684 794 
L 1344 794 
L 1344 0 
L 684 0 
L 684 794 
z
" transform="scale(0.015625)"/>
        <path id="DejaVuSans-34" d="M 2419 4116 
L 825 1625 
L 2419 1625 
L 2419 4116 
z
M 2253 4666 
L 3047 4666 
L 3047 1625 
L 3713 1625 
L 3713 1100 
L 3047 1100 
L 3047 0 
L 2419 0 
L 2419 1100 
L 313 1100 
L 313 1709 
L 2253 4666 
z
" transform="scale(0.015625)"/>
       </defs>
       <use xlink:href="#DejaVuSans-2212"/>
       <use xlink:href="#DejaVuSans-30" x="83.789062"/>
       <use xlink:href="#DejaVuSans-2e" x="147.412109"/>
       <use xlink:href="#DejaVuSans-34" x="179.199219"/>
      </g>
     </g>
    </g>
    <g id="xtick_2">
     <g id="line2d_2">
      <g>
       <use xlink:href="#mb87aa8b225" x="193.555639" y="406.890625" style="stroke: #000000; stroke-width: 0.8"/>
      </g>
     </g>
     <g id="text_2">
      <!-- −0.2 -->
      <g transform="translate(174.129389 426.048125) scale(0.16 -0.16)">
       <defs>
        <path id="DejaVuSans-32" d="M 1228 531 
L 3431 531 
L 3431 0 
L 469 0 
L 469 531 
Q 828 903 1448 1529 
Q 2069 2156 2228 2338 
Q 2531 2678 2651 2914 
Q 2772 3150 2772 3378 
Q 2772 3750 2511 3984 
Q 2250 4219 1831 4219 
Q 1534 4219 1204 4116 
Q 875 4013 500 3803 
L 500 4441 
Q 881 4594 1212 4672 
Q 1544 4750 1819 4750 
Q 2544 4750 2975 4387 
Q 3406 4025 3406 3419 
Q 3406 3131 3298 2873 
Q 3191 2616 2906 2266 
Q 2828 2175 2409 1742 
Q 1991 1309 1228 531 
z
" transform="scale(0.015625)"/>
       </defs>
       <use xlink:href="#DejaVuSans-2212"/>
       <use xlink:href="#DejaVuSans-30" x="83.789062"/>
       <use xlink:href="#DejaVuSans-2e" x="147.412109"/>
       <use xlink:href="#DejaVuSans-32" x="179.199219"/>
      </g>
     </g>
    </g>
    <g id="xtick_3">
     <g id="line2d_3">
      <g>
       <use xlink:href="#mb87aa8b225" x="260.89327" y="406.890625" style="stroke: #000000; stroke-width: 0.8"/>
      </g>
     </g>
     <g id="text_3">
      <!-- 0.0 -->
      <g transform="translate(248.17077 426.048125) scale(0.16 -0.16)">
       <use xlink:href="#DejaVuSans-30"/>
       <use xlink:href="#DejaVuSans-2e" x="63.623047"/>
       <use xlink:href="#DejaVuSans-30" x="95.410156"/>
      </g>
     </g>
    </g>
    <g id="xtick_4">
     <g id="line2d_4">
      <g>
       <use xlink:href="#mb87aa8b225" x="328.230901" y="406.890625" style="stroke: #000000; stroke-width: 0.8"/>
      </g>
     </g>
     <g id="text_4">
      <!-- 0.2 -->
      <g transform="translate(315.508401 426.048125) scale(0.16 -0.16)">
       <use xlink:href="#DejaVuSans-30"/>
       <use xlink:href="#DejaVuSans-2e" x="63.623047"/>
       <use xlink:href="#DejaVuSans-32" x="95.410156"/>
      </g>
     </g>
    </g>
    <g id="xtick_5">
     <g id="line2d_5">
      <g>
       <use xlink:href="#mb87aa8b225" x="395.568532" y="406.890625" style="stroke: #000000; stroke-width: 0.8"/>
      </g>
     </g>
     <g id="text_5">
      <!-- 0.4 -->
      <g transform="translate(382.846032 426.048125) scale(0.16 -0.16)">
       <use xlink:href="#DejaVuSans-30"/>
       <use xlink:href="#DejaVuSans-2e" x="63.623047"/>
       <use xlink:href="#DejaVuSans-34" x="95.410156"/>
      </g>
     </g>
    </g>
    <g id="text_6">
     <!-- all_datasets_weighted_avg_r_map_pcc_inverse_r_map_average_target_in_subject -->
     <g transform="translate(-159.1125 448.5725) scale(0.2 -0.2)">
      <defs>
       <path id="DejaVuSans-61" d="M 2194 1759 
Q 1497 1759 1228 1600 
Q 959 1441 959 1056 
Q 959 750 1161 570 
Q 1363 391 1709 391 
Q 2188 391 2477 730 
Q 2766 1069 2766 1631 
L 2766 1759 
L 2194 1759 
z
M 3341 1997 
L 3341 0 
L 2766 0 
L 2766 531 
Q 2569 213 2275 61 
Q 1981 -91 1556 -91 
Q 1019 -91 701 211 
Q 384 513 384 1019 
Q 384 1609 779 1909 
Q 1175 2209 1959 2209 
L 2766 2209 
L 2766 2266 
Q 2766 2663 2505 2880 
Q 2244 3097 1772 3097 
Q 1472 3097 1187 3025 
Q 903 2953 641 2809 
L 641 3341 
Q 956 3463 1253 3523 
Q 1550 3584 1831 3584 
Q 2591 3584 2966 3190 
Q 3341 2797 3341 1997 
z
" transform="scale(0.015625)"/>
       <path id="DejaVuSans-6c" d="M 603 4863 
L 1178 4863 
L 1178 0 
L 603 0 
L 603 4863 
z
" transform="scale(0.015625)"/>
       <path id="DejaVuSans-5f" d="M 3263 -1063 
L 3263 -1509 
L -63 -1509 
L -63 -1063 
L 3263 -1063 
z
" transform="scale(0.015625)"/>
       <path id="DejaVuSans-64" d="M 2906 2969 
L 2906 4863 
L 3481 4863 
L 3481 0 
L 2906 0 
L 2906 525 
Q 2725 213 2448 61 
Q 2172 -91 1784 -91 
Q 1150 -91 751 415 
Q 353 922 353 1747 
Q 353 2572 751 3078 
Q 1150 3584 1784 3584 
Q 2172 3584 2448 3432 
Q 2725 3281 2906 2969 
z
M 947 1747 
Q 947 1113 1208 752 
Q 1469 391 1925 391 
Q 2381 391 2643 752 
Q 2906 1113 2906 1747 
Q 2906 2381 2643 2742 
Q 2381 3103 1925 3103 
Q 1469 3103 1208 2742 
Q 947 2381 947 1747 
z
" transform="scale(0.015625)"/>
       <path id="DejaVuSans-74" d="M 1172 4494 
L 1172 3500 
L 2356 3500 
L 2356 3053 
L 1172 3053 
L 1172 1153 
Q 1172 725 1289 603 
Q 1406 481 1766 481 
L 2356 481 
L 2356 0 
L 1766 0 
Q 1100 0 847 248 
Q 594 497 594 1153 
L 594 3053 
L 172 3053 
L 172 3500 
L 594 3500 
L 594 4494 
L 1172 4494 
z
" transform="scale(0.015625)"/>
       <path id="DejaVuSans-73" d="M 2834 3397 
L 2834 2853 
Q 2591 2978 2328 3040 
Q 2066 3103 1784 3103 
Q 1356 3103 1142 2972 
Q 928 2841 928 2578 
Q 928 2378 1081 2264 
Q 1234 2150 1697 2047 
L 1894 2003 
Q 2506 1872 2764 1633 
Q 3022 1394 3022 966 
Q 3022 478 2636 193 
Q 2250 -91 1575 -91 
Q 1294 -91 989 -36 
Q 684 19 347 128 
L 347 722 
Q 666 556 975 473 
Q 1284 391 1588 391 
Q 1994 391 2212 530 
Q 2431 669 2431 922 
Q 2431 1156 2273 1281 
Q 2116 1406 1581 1522 
L 1381 1569 
Q 847 1681 609 1914 
Q 372 2147 372 2553 
Q 372 3047 722 3315 
Q 1072 3584 1716 3584 
Q 2034 3584 2315 3537 
Q 2597 3491 2834 3397 
z
" transform="scale(0.015625)"/>
       <path id="DejaVuSans-65" d="M 3597 1894 
L 3597 1613 
L 953 1613 
Q 991 1019 1311 708 
Q 1631 397 2203 397 
Q 2534 397 2845 478 
Q 3156 559 3463 722 
L 3463 178 
Q 3153 47 2828 -22 
Q 2503 -91 2169 -91 
Q 1331 -91 842 396 
Q 353 884 353 1716 
Q 353 2575 817 3079 
Q 1281 3584 2069 3584 
Q 2775 3584 3186 3129 
Q 3597 2675 3597 1894 
z
M 3022 2063 
Q 3016 2534 2758 2815 
Q 2500 3097 2075 3097 
Q 1594 3097 1305 2825 
Q 1016 2553 972 2059 
L 3022 2063 
z
" transform="scale(0.015625)"/>
       <path id="DejaVuSans-77" d="M 269 3500 
L 844 3500 
L 1563 769 
L 2278 3500 
L 2956 3500 
L 3675 769 
L 4391 3500 
L 4966 3500 
L 4050 0 
L 3372 0 
L 2619 2869 
L 1863 0 
L 1184 0 
L 269 3500 
z
" transform="scale(0.015625)"/>
       <path id="DejaVuSans-69" d="M 603 3500 
L 1178 3500 
L 1178 0 
L 603 0 
L 603 3500 
z
M 603 4863 
L 1178 4863 
L 1178 4134 
L 603 4134 
L 603 4863 
z
" transform="scale(0.015625)"/>
       <path id="DejaVuSans-67" d="M 2906 1791 
Q 2906 2416 2648 2759 
Q 2391 3103 1925 3103 
Q 1463 3103 1205 2759 
Q 947 2416 947 1791 
Q 947 1169 1205 825 
Q 1463 481 1925 481 
Q 2391 481 2648 825 
Q 2906 1169 2906 1791 
z
M 3481 434 
Q 3481 -459 3084 -895 
Q 2688 -1331 1869 -1331 
Q 1566 -1331 1297 -1286 
Q 1028 -1241 775 -1147 
L 775 -588 
Q 1028 -725 1275 -790 
Q 1522 -856 1778 -856 
Q 2344 -856 2625 -561 
Q 2906 -266 2906 331 
L 2906 616 
Q 2728 306 2450 153 
Q 2172 0 1784 0 
Q 1141 0 747 490 
Q 353 981 353 1791 
Q 353 2603 747 3093 
Q 1141 3584 1784 3584 
Q 2172 3584 2450 3431 
Q 2728 3278 2906 2969 
L 2906 3500 
L 3481 3500 
L 3481 434 
z
" transform="scale(0.015625)"/>
       <path id="DejaVuSans-68" d="M 3513 2113 
L 3513 0 
L 2938 0 
L 2938 2094 
Q 2938 2591 2744 2837 
Q 2550 3084 2163 3084 
Q 1697 3084 1428 2787 
Q 1159 2491 1159 1978 
L 1159 0 
L 581 0 
L 581 4863 
L 1159 4863 
L 1159 2956 
Q 1366 3272 1645 3428 
Q 1925 3584 2291 3584 
Q 2894 3584 3203 3211 
Q 3513 2838 3513 2113 
z
" transform="scale(0.015625)"/>
       <path id="DejaVuSans-76" d="M 191 3500 
L 800 3500 
L 1894 563 
L 2988 3500 
L 3597 3500 
L 2284 0 
L 1503 0 
L 191 3500 
z
" transform="scale(0.015625)"/>
       <path id="DejaVuSans-72" d="M 2631 2963 
Q 2534 3019 2420 3045 
Q 2306 3072 2169 3072 
Q 1681 3072 1420 2755 
Q 1159 2438 1159 1844 
L 1159 0 
L 581 0 
L 581 3500 
L 1159 3500 
L 1159 2956 
Q 1341 3275 1631 3429 
Q 1922 3584 2338 3584 
Q 2397 3584 2469 3576 
Q 2541 3569 2628 3553 
L 2631 2963 
z
" transform="scale(0.015625)"/>
       <path id="DejaVuSans-6d" d="M 3328 2828 
Q 3544 3216 3844 3400 
Q 4144 3584 4550 3584 
Q 5097 3584 5394 3201 
Q 5691 2819 5691 2113 
L 5691 0 
L 5113 0 
L 5113 2094 
Q 5113 2597 4934 2840 
Q 4756 3084 4391 3084 
Q 3944 3084 3684 2787 
Q 3425 2491 3425 1978 
L 3425 0 
L 2847 0 
L 2847 2094 
Q 2847 2600 2669 2842 
Q 2491 3084 2119 3084 
Q 1678 3084 1418 2786 
Q 1159 2488 1159 1978 
L 1159 0 
L 581 0 
L 581 3500 
L 1159 3500 
L 1159 2956 
Q 1356 3278 1631 3431 
Q 1906 3584 2284 3584 
Q 2666 3584 2933 3390 
Q 3200 3197 3328 2828 
z
" transform="scale(0.015625)"/>
       <path id="DejaVuSans-70" d="M 1159 525 
L 1159 -1331 
L 581 -1331 
L 581 3500 
L 1159 3500 
L 1159 2969 
Q 1341 3281 1617 3432 
Q 1894 3584 2278 3584 
Q 2916 3584 3314 3078 
Q 3713 2572 3713 1747 
Q 3713 922 3314 415 
Q 2916 -91 2278 -91 
Q 1894 -91 1617 61 
Q 1341 213 1159 525 
z
M 3116 1747 
Q 3116 2381 2855 2742 
Q 2594 3103 2138 3103 
Q 1681 3103 1420 2742 
Q 1159 2381 1159 1747 
Q 1159 1113 1420 752 
Q 1681 391 2138 391 
Q 2594 391 2855 752 
Q 3116 1113 3116 1747 
z
" transform="scale(0.015625)"/>
       <path id="DejaVuSans-63" d="M 3122 3366 
L 3122 2828 
Q 2878 2963 2633 3030 
Q 2388 3097 2138 3097 
Q 1578 3097 1268 2742 
Q 959 2388 959 1747 
Q 959 1106 1268 751 
Q 1578 397 2138 397 
Q 2388 397 2633 464 
Q 2878 531 3122 666 
L 3122 134 
Q 2881 22 2623 -34 
Q 2366 -91 2075 -91 
Q 1284 -91 818 406 
Q 353 903 353 1747 
Q 353 2603 823 3093 
Q 1294 3584 2113 3584 
Q 2378 3584 2631 3529 
Q 2884 3475 3122 3366 
z
" transform="scale(0.015625)"/>
       <path id="DejaVuSans-6e" d="M 3513 2113 
L 3513 0 
L 2938 0 
L 2938 2094 
Q 2938 2591 2744 2837 
Q 2550 3084 2163 3084 
Q 1697 3084 1428 2787 
Q 1159 2491 1159 1978 
L 1159 0 
L 581 0 
L 581 3500 
L 1159 3500 
L 1159 2956 
Q 1366 3272 1645 3428 
Q 1925 3584 2291 3584 
Q 2894 3584 3203 3211 
Q 3513 2838 3513 2113 
z
" transform="scale(0.015625)"/>
       <path id="DejaVuSans-75" d="M 544 1381 
L 544 3500 
L 1119 3500 
L 1119 1403 
Q 1119 906 1312 657 
Q 1506 409 1894 409 
Q 2359 409 2629 706 
Q 2900 1003 2900 1516 
L 2900 3500 
L 3475 3500 
L 3475 0 
L 2900 0 
L 2900 538 
Q 2691 219 2414 64 
Q 2138 -91 1772 -91 
Q 1169 -91 856 284 
Q 544 659 544 1381 
z
M 1991 3584 
L 1991 3584 
z
" transform="scale(0.015625)"/>
       <path id="DejaVuSans-62" d="M 3116 1747 
Q 3116 2381 2855 2742 
Q 2594 3103 2138 3103 
Q 1681 3103 1420 2742 
Q 1159 2381 1159 1747 
Q 1159 1113 1420 752 
Q 1681 391 2138 391 
Q 2594 391 2855 752 
Q 3116 1113 3116 1747 
z
M 1159 2969 
Q 1341 3281 1617 3432 
Q 1894 3584 2278 3584 
Q 2916 3584 3314 3078 
Q 3713 2572 3713 1747 
Q 3713 922 3314 415 
Q 2916 -91 2278 -91 
Q 1894 -91 1617 61 
Q 1341 213 1159 525 
L 1159 0 
L 581 0 
L 581 4863 
L 1159 4863 
L 1159 2969 
z
" transform="scale(0.015625)"/>
       <path id="DejaVuSans-6a" d="M 603 3500 
L 1178 3500 
L 1178 -63 
Q 1178 -731 923 -1031 
Q 669 -1331 103 -1331 
L -116 -1331 
L -116 -844 
L 38 -844 
Q 366 -844 484 -692 
Q 603 -541 603 -63 
L 603 3500 
z
M 603 4863 
L 1178 4863 
L 1178 4134 
L 603 4134 
L 603 4863 
z
" transform="scale(0.015625)"/>
      </defs>
      <use xlink:href="#DejaVuSans-61"/>
      <use xlink:href="#DejaVuSans-6c" x="61.279297"/>
      <use xlink:href="#DejaVuSans-6c" x="89.0625"/>
      <use xlink:href="#DejaVuSans-5f" x="116.845703"/>
      <use xlink:href="#DejaVuSans-64" x="166.845703"/>
      <use xlink:href="#DejaVuSans-61" x="230.322266"/>
      <use xlink:href="#DejaVuSans-74" x="291.601562"/>
      <use xlink:href="#DejaVuSans-61" x="330.810547"/>
      <use xlink:href="#DejaVuSans-73" x="392.089844"/>
      <use xlink:href="#DejaVuSans-65" x="444.189453"/>
      <use xlink:href="#DejaVuSans-74" x="505.712891"/>
      <use xlink:href="#DejaVuSans-73" x="544.921875"/>
      <use xlink:href="#DejaVuSans-5f" x="597.021484"/>
      <use xlink:href="#DejaVuSans-77" x="647.021484"/>
      <use xlink:href="#DejaVuSans-65" x="728.808594"/>
      <use xlink:href="#DejaVuSans-69" x="790.332031"/>
      <use xlink:href="#DejaVuSans-67" x="818.115234"/>
      <use xlink:href="#DejaVuSans-68" x="881.591797"/>
      <use xlink:href="#DejaVuSans-74" x="944.970703"/>
      <use xlink:href="#DejaVuSans-65" x="984.179688"/>
      <use xlink:href="#DejaVuSans-64" x="1045.703125"/>
      <use xlink:href="#DejaVuSans-5f" x="1109.179688"/>
      <use xlink:href="#DejaVuSans-61" x="1159.179688"/>
      <use xlink:href="#DejaVuSans-76" x="1220.458984"/>
      <use xlink:href="#DejaVuSans-67" x="1279.638672"/>
      <use xlink:href="#DejaVuSans-5f" x="1343.115234"/>
      <use xlink:href="#DejaVuSans-72" x="1393.115234"/>
      <use xlink:href="#DejaVuSans-5f" x="1434.228516"/>
      <use xlink:href="#DejaVuSans-6d" x="1484.228516"/>
      <use xlink:href="#DejaVuSans-61" x="1581.640625"/>
      <use xlink:href="#DejaVuSans-70" x="1642.919922"/>
      <use xlink:href="#DejaVuSans-5f" x="1706.396484"/>
      <use xlink:href="#DejaVuSans-70" x="1756.396484"/>
      <use xlink:href="#DejaVuSans-63" x="1819.873047"/>
      <use xlink:href="#DejaVuSans-63" x="1874.853516"/>
      <use xlink:href="#DejaVuSans-5f" x="1929.833984"/>
      <use xlink:href="#DejaVuSans-69" x="1979.833984"/>
      <use xlink:href="#DejaVuSans-6e" x="2007.617188"/>
      <use xlink:href="#DejaVuSans-76" x="2070.996094"/>
      <use xlink:href="#DejaVuSans-65" x="2130.175781"/>
      <use xlink:href="#DejaVuSans-72" x="2191.699219"/>
      <use xlink:href="#DejaVuSans-73" x="2232.8125"/>
      <use xlink:href="#DejaVuSans-65" x="2284.912109"/>
      <use xlink:href="#DejaVuSans-5f" x="2346.435547"/>
      <use xlink:href="#DejaVuSans-72" x="2396.435547"/>
      <use xlink:href="#DejaVuSans-5f" x="2437.548828"/>
      <use xlink:href="#DejaVuSans-6d" x="2487.548828"/>
      <use xlink:href="#DejaVuSans-61" x="2584.960938"/>
      <use xlink:href="#DejaVuSans-70" x="2646.240234"/>
      <use xlink:href="#DejaVuSans-5f" x="2709.716797"/>
      <use xlink:href="#DejaVuSans-61" x="2759.716797"/>
      <use xlink:href="#DejaVuSans-76" x="2820.996094"/>
      <use xlink:href="#DejaVuSans-65" x="2880.175781"/>
      <use xlink:href="#DejaVuSans-72" x="2941.699219"/>
      <use xlink:href="#DejaVuSans-61" x="2982.8125"/>
      <use xlink:href="#DejaVuSans-67" x="3044.091797"/>
      <use xlink:href="#DejaVuSans-65" x="3107.568359"/>
      <use xlink:href="#DejaVuSans-5f" x="3169.091797"/>
      <use xlink:href="#DejaVuSans-74" x="3219.091797"/>
      <use xlink:href="#DejaVuSans-61" x="3258.300781"/>
      <use xlink:href="#DejaVuSans-72" x="3319.580078"/>
      <use xlink:href="#DejaVuSans-67" x="3358.943359"/>
      <use xlink:href="#DejaVuSans-65" x="3422.419922"/>
      <use xlink:href="#DejaVuSans-74" x="3483.943359"/>
      <use xlink:href="#DejaVuSans-5f" x="3523.152344"/>
      <use xlink:href="#DejaVuSans-69" x="3573.152344"/>
      <use xlink:href="#DejaVuSans-6e" x="3600.935547"/>
      <use xlink:href="#DejaVuSans-5f" x="3664.314453"/>
      <use xlink:href="#DejaVuSans-73" x="3714.314453"/>
      <use xlink:href="#DejaVuSans-75" x="3766.414062"/>
      <use xlink:href="#DejaVuSans-62" x="3829.792969"/>
      <use xlink:href="#DejaVuSans-6a" x="3893.269531"/>
      <use xlink:href="#DejaVuSans-65" x="3921.052734"/>
      <use xlink:href="#DejaVuSans-63" x="3982.576172"/>
      <use xlink:href="#DejaVuSans-74" x="4037.556641"/>
     </g>
    </g>
   </g>
   <g id="matplotlib.axis_2">
    <g id="ytick_1">
     <g id="line2d_6">
      <defs>
       <path id="m7cb3d5a577" d="M 0 0 
L -3.5 0 
" style="stroke: #000000; stroke-width: 0.8"/>
      </defs>
      <g>
       <use xlink:href="#m7cb3d5a577" x="61.7" y="384.751499" style="stroke: #000000; stroke-width: 0.8"/>
      </g>
     </g>
     <g id="text_7">
      <!-- −8 -->
      <g transform="translate(31.1125 390.830249) scale(0.16 -0.16)">
       <defs>
        <path id="DejaVuSans-38" d="M 2034 2216 
Q 1584 2216 1326 1975 
Q 1069 1734 1069 1313 
Q 1069 891 1326 650 
Q 1584 409 2034 409 
Q 2484 409 2743 651 
Q 3003 894 3003 1313 
Q 3003 1734 2745 1975 
Q 2488 2216 2034 2216 
z
M 1403 2484 
Q 997 2584 770 2862 
Q 544 3141 544 3541 
Q 544 4100 942 4425 
Q 1341 4750 2034 4750 
Q 2731 4750 3128 4425 
Q 3525 4100 3525 3541 
Q 3525 3141 3298 2862 
Q 3072 2584 2669 2484 
Q 3125 2378 3379 2068 
Q 3634 1759 3634 1313 
Q 3634 634 3220 271 
Q 2806 -91 2034 -91 
Q 1263 -91 848 271 
Q 434 634 434 1313 
Q 434 1759 690 2068 
Q 947 2378 1403 2484 
z
M 1172 3481 
Q 1172 3119 1398 2916 
Q 1625 2713 2034 2713 
Q 2441 2713 2670 2916 
Q 2900 3119 2900 3481 
Q 2900 3844 2670 4047 
Q 2441 4250 2034 4250 
Q 1625 4250 1398 4047 
Q 1172 3844 1172 3481 
z
" transform="scale(0.015625)"/>
       </defs>
       <use xlink:href="#DejaVuSans-2212"/>
       <use xlink:href="#DejaVuSans-38" x="83.789062"/>
      </g>
     </g>
    </g>
    <g id="ytick_2">
     <g id="line2d_7">
      <g>
       <use xlink:href="#m7cb3d5a577" x="61.7" y="330.00223" style="stroke: #000000; stroke-width: 0.8"/>
      </g>
     </g>
     <g id="text_8">
      <!-- −6 -->
      <g transform="translate(31.1125 336.08098) scale(0.16 -0.16)">
       <defs>
        <path id="DejaVuSans-36" d="M 2113 2584 
Q 1688 2584 1439 2293 
Q 1191 2003 1191 1497 
Q 1191 994 1439 701 
Q 1688 409 2113 409 
Q 2538 409 2786 701 
Q 3034 994 3034 1497 
Q 3034 2003 2786 2293 
Q 2538 2584 2113 2584 
z
M 3366 4563 
L 3366 3988 
Q 3128 4100 2886 4159 
Q 2644 4219 2406 4219 
Q 1781 4219 1451 3797 
Q 1122 3375 1075 2522 
Q 1259 2794 1537 2939 
Q 1816 3084 2150 3084 
Q 2853 3084 3261 2657 
Q 3669 2231 3669 1497 
Q 3669 778 3244 343 
Q 2819 -91 2113 -91 
Q 1303 -91 875 529 
Q 447 1150 447 2328 
Q 447 3434 972 4092 
Q 1497 4750 2381 4750 
Q 2619 4750 2861 4703 
Q 3103 4656 3366 4563 
z
" transform="scale(0.015625)"/>
       </defs>
       <use xlink:href="#DejaVuSans-2212"/>
       <use xlink:href="#DejaVuSans-36" x="83.789062"/>
      </g>
     </g>
    </g>
    <g id="ytick_3">
     <g id="line2d_8">
      <g>
       <use xlink:href="#m7cb3d5a577" x="61.7" y="275.25296" style="stroke: #000000; stroke-width: 0.8"/>
      </g>
     </g>
     <g id="text_9">
      <!-- −4 -->
      <g transform="translate(31.1125 281.33171) scale(0.16 -0.16)">
       <use xlink:href="#DejaVuSans-2212"/>
       <use xlink:href="#DejaVuSans-34" x="83.789062"/>
      </g>
     </g>
    </g>
    <g id="ytick_4">
     <g id="line2d_9">
      <g>
       <use xlink:href="#m7cb3d5a577" x="61.7" y="220.503691" style="stroke: #000000; stroke-width: 0.8"/>
      </g>
     </g>
     <g id="text_10">
      <!-- −2 -->
      <g transform="translate(31.1125 226.582441) scale(0.16 -0.16)">
       <use xlink:href="#DejaVuSans-2212"/>
       <use xlink:href="#DejaVuSans-32" x="83.789062"/>
      </g>
     </g>
    </g>
    <g id="ytick_5">
     <g id="line2d_10">
      <g>
       <use xlink:href="#m7cb3d5a577" x="61.7" y="165.754422" style="stroke: #000000; stroke-width: 0.8"/>
      </g>
     </g>
     <g id="text_11">
      <!-- 0 -->
      <g transform="translate(44.52 171.833172) scale(0.16 -0.16)">
       <use xlink:href="#DejaVuSans-30"/>
      </g>
     </g>
    </g>
    <g id="ytick_6">
     <g id="line2d_11">
      <g>
       <use xlink:href="#m7cb3d5a577" x="61.7" y="111.005153" style="stroke: #000000; stroke-width: 0.8"/>
      </g>
     </g>
     <g id="text_12">
      <!-- 2 -->
      <g transform="translate(44.52 117.083903) scale(0.16 -0.16)">
       <use xlink:href="#DejaVuSans-32"/>
      </g>
     </g>
    </g>
    <g id="ytick_7">
     <g id="line2d_12">
      <g>
       <use xlink:href="#m7cb3d5a577" x="61.7" y="56.255884" style="stroke: #000000; stroke-width: 0.8"/>
      </g>
     </g>
     <g id="text_13">
      <!-- 4 -->
      <g transform="translate(44.52 62.334634) scale(0.16 -0.16)">
       <use xlink:href="#DejaVuSans-34"/>
      </g>
     </g>
    </g>
    <g id="text_14">
     <!-- Pre_Post_Memory_Effect_Size__Cohen_s_D_ -->
     <g transform="translate(22.396875 434.421875) rotate(-90) scale(0.2 -0.2)">
      <defs>
       <path id="DejaVuSans-50" d="M 1259 4147 
L 1259 2394 
L 2053 2394 
Q 2494 2394 2734 2622 
Q 2975 2850 2975 3272 
Q 2975 3691 2734 3919 
Q 2494 4147 2053 4147 
L 1259 4147 
z
M 628 4666 
L 2053 4666 
Q 2838 4666 3239 4311 
Q 3641 3956 3641 3272 
Q 3641 2581 3239 2228 
Q 2838 1875 2053 1875 
L 1259 1875 
L 1259 0 
L 628 0 
L 628 4666 
z
" transform="scale(0.015625)"/>
       <path id="DejaVuSans-6f" d="M 1959 3097 
Q 1497 3097 1228 2736 
Q 959 2375 959 1747 
Q 959 1119 1226 758 
Q 1494 397 1959 397 
Q 2419 397 2687 759 
Q 2956 1122 2956 1747 
Q 2956 2369 2687 2733 
Q 2419 3097 1959 3097 
z
M 1959 3584 
Q 2709 3584 3137 3096 
Q 3566 2609 3566 1747 
Q 3566 888 3137 398 
Q 2709 -91 1959 -91 
Q 1206 -91 779 398 
Q 353 888 353 1747 
Q 353 2609 779 3096 
Q 1206 3584 1959 3584 
z
" transform="scale(0.015625)"/>
       <path id="DejaVuSans-4d" d="M 628 4666 
L 1569 4666 
L 2759 1491 
L 3956 4666 
L 4897 4666 
L 4897 0 
L 4281 0 
L 4281 4097 
L 3078 897 
L 2444 897 
L 1241 4097 
L 1241 0 
L 628 0 
L 628 4666 
z
" transform="scale(0.015625)"/>
       <path id="DejaVuSans-79" d="M 2059 -325 
Q 1816 -950 1584 -1140 
Q 1353 -1331 966 -1331 
L 506 -1331 
L 506 -850 
L 844 -850 
Q 1081 -850 1212 -737 
Q 1344 -625 1503 -206 
L 1606 56 
L 191 3500 
L 800 3500 
L 1894 763 
L 2988 3500 
L 3597 3500 
L 2059 -325 
z
" transform="scale(0.015625)"/>
       <path id="DejaVuSans-45" d="M 628 4666 
L 3578 4666 
L 3578 4134 
L 1259 4134 
L 1259 2753 
L 3481 2753 
L 3481 2222 
L 1259 2222 
L 1259 531 
L 3634 531 
L 3634 0 
L 628 0 
L 628 4666 
z
" transform="scale(0.015625)"/>
       <path id="DejaVuSans-66" d="M 2375 4863 
L 2375 4384 
L 1825 4384 
Q 1516 4384 1395 4259 
Q 1275 4134 1275 3809 
L 1275 3500 
L 2222 3500 
L 2222 3053 
L 1275 3053 
L 1275 0 
L 697 0 
L 697 3053 
L 147 3053 
L 147 3500 
L 697 3500 
L 697 3744 
Q 697 4328 969 4595 
Q 1241 4863 1831 4863 
L 2375 4863 
z
" transform="scale(0.015625)"/>
       <path id="DejaVuSans-53" d="M 3425 4513 
L 3425 3897 
Q 3066 4069 2747 4153 
Q 2428 4238 2131 4238 
Q 1616 4238 1336 4038 
Q 1056 3838 1056 3469 
Q 1056 3159 1242 3001 
Q 1428 2844 1947 2747 
L 2328 2669 
Q 3034 2534 3370 2195 
Q 3706 1856 3706 1288 
Q 3706 609 3251 259 
Q 2797 -91 1919 -91 
Q 1588 -91 1214 -16 
Q 841 59 441 206 
L 441 856 
Q 825 641 1194 531 
Q 1563 422 1919 422 
Q 2459 422 2753 634 
Q 3047 847 3047 1241 
Q 3047 1584 2836 1778 
Q 2625 1972 2144 2069 
L 1759 2144 
Q 1053 2284 737 2584 
Q 422 2884 422 3419 
Q 422 4038 858 4394 
Q 1294 4750 2059 4750 
Q 2388 4750 2728 4690 
Q 3069 4631 3425 4513 
z
" transform="scale(0.015625)"/>
       <path id="DejaVuSans-7a" d="M 353 3500 
L 3084 3500 
L 3084 2975 
L 922 459 
L 3084 459 
L 3084 0 
L 275 0 
L 275 525 
L 2438 3041 
L 353 3041 
L 353 3500 
z
" transform="scale(0.015625)"/>
       <path id="DejaVuSans-43" d="M 4122 4306 
L 4122 3641 
Q 3803 3938 3442 4084 
Q 3081 4231 2675 4231 
Q 1875 4231 1450 3742 
Q 1025 3253 1025 2328 
Q 1025 1406 1450 917 
Q 1875 428 2675 428 
Q 3081 428 3442 575 
Q 3803 722 4122 1019 
L 4122 359 
Q 3791 134 3420 21 
Q 3050 -91 2638 -91 
Q 1578 -91 968 557 
Q 359 1206 359 2328 
Q 359 3453 968 4101 
Q 1578 4750 2638 4750 
Q 3056 4750 3426 4639 
Q 3797 4528 4122 4306 
z
" transform="scale(0.015625)"/>
       <path id="DejaVuSans-44" d="M 1259 4147 
L 1259 519 
L 2022 519 
Q 2988 519 3436 956 
Q 3884 1394 3884 2338 
Q 3884 3275 3436 3711 
Q 2988 4147 2022 4147 
L 1259 4147 
z
M 628 4666 
L 1925 4666 
Q 3281 4666 3915 4102 
Q 4550 3538 4550 2338 
Q 4550 1131 3912 565 
Q 3275 0 1925 0 
L 628 0 
L 628 4666 
z
" transform="scale(0.015625)"/>
      </defs>
      <use xlink:href="#DejaVuSans-50"/>
      <use xlink:href="#DejaVuSans-72" x="58.552734"/>
      <use xlink:href="#DejaVuSans-65" x="97.416016"/>
      <use xlink:href="#DejaVuSans-5f" x="158.939453"/>
      <use xlink:href="#DejaVuSans-50" x="208.939453"/>
      <use xlink:href="#DejaVuSans-6f" x="265.617188"/>
      <use xlink:href="#DejaVuSans-73" x="326.798828"/>
      <use xlink:href="#DejaVuSans-74" x="378.898438"/>
      <use xlink:href="#DejaVuSans-5f" x="418.107422"/>
      <use xlink:href="#DejaVuSans-4d" x="468.107422"/>
      <use xlink:href="#DejaVuSans-65" x="554.386719"/>
      <use xlink:href="#DejaVuSans-6d" x="615.910156"/>
      <use xlink:href="#DejaVuSans-6f" x="713.322266"/>
      <use xlink:href="#DejaVuSans-72" x="774.503906"/>
      <use xlink:href="#DejaVuSans-79" x="815.617188"/>
      <use xlink:href="#DejaVuSans-5f" x="874.796875"/>
      <use xlink:href="#DejaVuSans-45" x="924.796875"/>
      <use xlink:href="#DejaVuSans-66" x="987.980469"/>
      <use xlink:href="#DejaVuSans-66" x="1023.185547"/>
      <use xlink:href="#DejaVuSans-65" x="1058.390625"/>
      <use xlink:href="#DejaVuSans-63" x="1119.914062"/>
      <use xlink:href="#DejaVuSans-74" x="1174.894531"/>
      <use xlink:href="#DejaVuSans-5f" x="1214.103516"/>
      <use xlink:href="#DejaVuSans-53" x="1264.103516"/>
      <use xlink:href="#DejaVuSans-69" x="1327.580078"/>
      <use xlink:href="#DejaVuSans-7a" x="1355.363281"/>
      <use xlink:href="#DejaVuSans-65" x="1407.853516"/>
      <use xlink:href="#DejaVuSans-5f" x="1469.376953"/>
      <use xlink:href="#DejaVuSans-5f" x="1519.376953"/>
      <use xlink:href="#DejaVuSans-43" x="1569.376953"/>
      <use xlink:href="#DejaVuSans-6f" x="1639.201172"/>
      <use xlink:href="#DejaVuSans-68" x="1700.382812"/>
      <use xlink:href="#DejaVuSans-65" x="1763.761719"/>
      <use xlink:href="#DejaVuSans-6e" x="1825.285156"/>
      <use xlink:href="#DejaVuSans-5f" x="1888.664062"/>
      <use xlink:href="#DejaVuSans-73" x="1938.664062"/>
      <use xlink:href="#DejaVuSans-5f" x="1990.763672"/>
      <use xlink:href="#DejaVuSans-44" x="2040.763672"/>
      <use xlink:href="#DejaVuSans-5f" x="2117.765625"/>
     </g>
    </g>
   </g>
   <g id="line2d_13">
    <path d="M 78.688352 229.089376 
L 82.120343 228.645191 
L 85.552333 228.201006 
L 88.984323 227.756821 
L 92.416314 227.312636 
L 95.848304 226.868451 
L 99.280294 226.424266 
L 102.712285 225.980082 
L 106.144275 225.535897 
L 109.576265 225.091712 
L 113.008256 224.647527 
L 116.440246 224.203342 
L 119.872237 223.759157 
L 123.304227 223.314972 
L 126.736217 222.870787 
L 130.168208 222.426602 
L 133.600198 221.982418 
L 137.032188 221.538233 
L 140.464179 221.094048 
L 143.896169 220.649863 
L 147.328159 220.205678 
L 150.76015 219.761493 
L 154.19214 219.317308 
L 157.624131 218.873123 
L 161.056121 218.428938 
L 164.488111 217.984754 
L 167.920102 217.540569 
L 171.352092 217.096384 
L 174.784082 216.652199 
L 178.216073 216.208014 
L 181.648063 215.763829 
L 185.080053 215.319644 
L 188.512044 214.875459 
L 191.944034 214.431274 
L 195.376024 213.987089 
L 198.808015 213.542905 
L 202.240005 213.09872 
L 205.671996 212.654535 
L 209.103986 212.21035 
L 212.535976 211.766165 
L 215.967967 211.32198 
L 219.399957 210.877795 
L 222.831947 210.43361 
L 226.263938 209.989425 
L 229.695928 209.545241 
L 233.127918 209.101056 
L 236.559909 208.656871 
L 239.991899 208.212686 
L 243.423889 207.768501 
L 246.85588 207.324316 
L 250.28787 206.880131 
L 253.719861 206.435946 
L 257.151851 205.991761 
L 260.583841 205.547577 
L 264.015832 205.103392 
L 267.447822 204.659207 
L 270.879812 204.215022 
L 274.311803 203.770837 
L 277.743793 203.326652 
L 281.175783 202.882467 
L 284.607774 202.438282 
L 288.039764 201.994097 
L 291.471754 201.549912 
L 294.903745 201.105728 
L 298.335735 200.661543 
L 301.767726 200.217358 
L 305.199716 199.773173 
L 308.631706 199.328988 
L 312.063697 198.884803 
L 315.495687 198.440618 
L 318.927677 197.996433 
L 322.359668 197.552248 
L 325.791658 197.108064 
L 329.223648 196.663879 
L 332.655639 196.219694 
L 336.087629 195.775509 
L 339.519619 195.331324 
L 342.95161 194.887139 
L 346.3836 194.442954 
L 349.815591 193.998769 
L 353.247581 193.554584 
L 356.679571 193.1104 
L 360.111562 192.666215 
L 363.543552 192.22203 
L 366.975542 191.777845 
L 370.407533 191.33366 
L 373.839523 190.889475 
L 377.271513 190.44529 
L 380.703504 190.001105 
L 384.135494 189.55692 
L 387.567485 189.112735 
L 390.999475 188.668551 
L 394.431465 188.224366 
L 397.863456 187.780181 
L 401.295446 187.335996 
L 404.727436 186.891811 
L 408.159427 186.447626 
L 411.591417 186.003441 
L 415.023407 185.559256 
L 418.455398 185.115071 
" clip-path="url(#p8b60f36606)" style="fill: none; stroke: #8e8e8e; stroke-width: 2.25; stroke-linecap: square"/>
   </g>
   <g id="patch_3">
    <path d="M 61.7 406.890625 
L 61.7 28.396875 
" style="fill: none; stroke: #000000; stroke-width: 2; stroke-linejoin: miter; stroke-linecap: square"/>
   </g>
   <g id="patch_4">
    <path d="M 61.7 406.890625 
L 435.44375 406.890625 
" style="fill: none; stroke: #000000; stroke-width: 2; stroke-linejoin: miter; stroke-linecap: square"/>
   </g>
   <g id="PathCollection_1">
    <defs>
     <path id="m1da3c2144b" d="M 0 6.123724 
C 1.624031 6.123724 3.181764 5.47849 4.330127 4.330127 
C 5.47849 3.181764 6.123724 1.624031 6.123724 0 
C 6.123724 -1.624031 5.47849 -3.181764 4.330127 -4.330127 
C 3.181764 -5.47849 1.624031 -6.123724 0 -6.123724 
C -1.624031 -6.123724 -3.181764 -5.47849 -4.330127 -4.330127 
C -5.47849 -3.181764 -6.123724 -1.624031 -6.123724 0 
C -6.123724 1.624031 -5.47849 3.181764 -4.330127 4.330127 
C -3.181764 5.47849 -1.624031 6.123724 0 6.123724 
z
" style="stroke: #ffffff; stroke-opacity: 0.98; stroke-width: 2"/>
    </defs>
    <g clip-path="url(#p8b60f36606)">
     <use xlink:href="#m1da3c2144b" x="399.272783" y="121.721509" style="fill: #8e8e8e; fill-opacity: 0.98; stroke: #ffffff; stroke-opacity: 0.98; stroke-width: 2"/>
     <use xlink:href="#m1da3c2144b" x="339.674334" y="340.413291" style="fill: #8e8e8e; fill-opacity: 0.98; stroke: #ffffff; stroke-opacity: 0.98; stroke-width: 2"/>
     <use xlink:href="#m1da3c2144b" x="353.390647" y="172.504365" style="fill: #8e8e8e; fill-opacity: 0.98; stroke: #ffffff; stroke-opacity: 0.98; stroke-width: 2"/>
     <use xlink:href="#m1da3c2144b" x="339.674334" y="239.877257" style="fill: #8e8e8e; fill-opacity: 0.98; stroke: #ffffff; stroke-opacity: 0.98; stroke-width: 2"/>
     <use xlink:href="#m1da3c2144b" x="399.272783" y="137.638337" style="fill: #8e8e8e; fill-opacity: 0.98; stroke: #ffffff; stroke-opacity: 0.98; stroke-width: 2"/>
     <use xlink:href="#m1da3c2144b" x="370.89948" y="164.746801" style="fill: #8e8e8e; fill-opacity: 0.98; stroke: #ffffff; stroke-opacity: 0.98; stroke-width: 2"/>
     <use xlink:href="#m1da3c2144b" x="339.674334" y="164.91688" style="fill: #8e8e8e; fill-opacity: 0.98; stroke: #ffffff; stroke-opacity: 0.98; stroke-width: 2"/>
     <use xlink:href="#m1da3c2144b" x="399.272783" y="199.207328" style="fill: #8e8e8e; fill-opacity: 0.98; stroke: #ffffff; stroke-opacity: 0.98; stroke-width: 2"/>
     <use xlink:href="#m1da3c2144b" x="418.455398" y="182.102112" style="fill: #8e8e8e; fill-opacity: 0.98; stroke: #ffffff; stroke-opacity: 0.98; stroke-width: 2"/>
     <use xlink:href="#m1da3c2144b" x="109.710735" y="240.177652" style="fill: #8e8e8e; fill-opacity: 0.98; stroke: #ffffff; stroke-opacity: 0.98; stroke-width: 2"/>
     <use xlink:href="#m1da3c2144b" x="399.272783" y="199.007681" style="fill: #8e8e8e; fill-opacity: 0.98; stroke: #ffffff; stroke-opacity: 0.98; stroke-width: 2"/>
     <use xlink:href="#m1da3c2144b" x="339.674334" y="201.474239" style="fill: #8e8e8e; fill-opacity: 0.98; stroke: #ffffff; stroke-opacity: 0.98; stroke-width: 2"/>
     <use xlink:href="#m1da3c2144b" x="339.674334" y="208.410171" style="fill: #8e8e8e; fill-opacity: 0.98; stroke: #ffffff; stroke-opacity: 0.98; stroke-width: 2"/>
     <use xlink:href="#m1da3c2144b" x="327.448432" y="45.601136" style="fill: #8e8e8e; fill-opacity: 0.98; stroke: #ffffff; stroke-opacity: 0.98; stroke-width: 2"/>
     <use xlink:href="#m1da3c2144b" x="78.688352" y="100.930475" style="fill: #8e8e8e; fill-opacity: 0.98; stroke: #ffffff; stroke-opacity: 0.98; stroke-width: 2"/>
     <use xlink:href="#m1da3c2144b" x="261.068183" y="325.2437" style="fill: #8e8e8e; fill-opacity: 0.98; stroke: #ffffff; stroke-opacity: 0.98; stroke-width: 2"/>
     <use xlink:href="#m1da3c2144b" x="261.068183" y="226.927618" style="fill: #8e8e8e; fill-opacity: 0.98; stroke: #ffffff; stroke-opacity: 0.98; stroke-width: 2"/>
     <use xlink:href="#m1da3c2144b" x="399.272783" y="119.786943" style="fill: #8e8e8e; fill-opacity: 0.98; stroke: #ffffff; stroke-opacity: 0.98; stroke-width: 2"/>
     <use xlink:href="#m1da3c2144b" x="339.674334" y="113.153026" style="fill: #8e8e8e; fill-opacity: 0.98; stroke: #ffffff; stroke-opacity: 0.98; stroke-width: 2"/>
     <use xlink:href="#m1da3c2144b" x="399.272783" y="149.110115" style="fill: #8e8e8e; fill-opacity: 0.98; stroke: #ffffff; stroke-opacity: 0.98; stroke-width: 2"/>
     <use xlink:href="#m1da3c2144b" x="339.674334" y="275.25296" style="fill: #8e8e8e; fill-opacity: 0.98; stroke: #ffffff; stroke-opacity: 0.98; stroke-width: 2"/>
     <use xlink:href="#m1da3c2144b" x="399.272783" y="188.920737" style="fill: #8e8e8e; fill-opacity: 0.98; stroke: #ffffff; stroke-opacity: 0.98; stroke-width: 2"/>
     <use xlink:href="#m1da3c2144b" x="399.272783" y="140.327535" style="fill: #8e8e8e; fill-opacity: 0.98; stroke: #ffffff; stroke-opacity: 0.98; stroke-width: 2"/>
     <use xlink:href="#m1da3c2144b" x="339.674334" y="194.846356" style="fill: #8e8e8e; fill-opacity: 0.98; stroke: #ffffff; stroke-opacity: 0.98; stroke-width: 2"/>
     <use xlink:href="#m1da3c2144b" x="78.688352" y="233.273616" style="fill: #8e8e8e; fill-opacity: 0.98; stroke: #ffffff; stroke-opacity: 0.98; stroke-width: 2"/>
     <use xlink:href="#m1da3c2144b" x="399.272783" y="171.128774" style="fill: #8e8e8e; fill-opacity: 0.98; stroke: #ffffff; stroke-opacity: 0.98; stroke-width: 2"/>
     <use xlink:href="#m1da3c2144b" x="339.674334" y="160.502325" style="fill: #8e8e8e; fill-opacity: 0.98; stroke: #ffffff; stroke-opacity: 0.98; stroke-width: 2"/>
     <use xlink:href="#m1da3c2144b" x="339.674334" y="178.143624" style="fill: #8e8e8e; fill-opacity: 0.98; stroke: #ffffff; stroke-opacity: 0.98; stroke-width: 2"/>
     <use xlink:href="#m1da3c2144b" x="339.674334" y="196.443923" style="fill: #8e8e8e; fill-opacity: 0.98; stroke: #ffffff; stroke-opacity: 0.98; stroke-width: 2"/>
     <use xlink:href="#m1da3c2144b" x="270.456762" y="249.921947" style="fill: #8e8e8e; fill-opacity: 0.98; stroke: #ffffff; stroke-opacity: 0.98; stroke-width: 2"/>
     <use xlink:href="#m1da3c2144b" x="339.674334" y="174.395214" style="fill: #8e8e8e; fill-opacity: 0.98; stroke: #ffffff; stroke-opacity: 0.98; stroke-width: 2"/>
     <use xlink:href="#m1da3c2144b" x="339.674334" y="343.319537" style="fill: #8e8e8e; fill-opacity: 0.98; stroke: #ffffff; stroke-opacity: 0.98; stroke-width: 2"/>
     <use xlink:href="#m1da3c2144b" x="339.674334" y="311.732802" style="fill: #8e8e8e; fill-opacity: 0.98; stroke: #ffffff; stroke-opacity: 0.98; stroke-width: 2"/>
     <use xlink:href="#m1da3c2144b" x="399.272783" y="195.450373" style="fill: #8e8e8e; fill-opacity: 0.98; stroke: #ffffff; stroke-opacity: 0.98; stroke-width: 2"/>
     <use xlink:href="#m1da3c2144b" x="339.674334" y="204.344312" style="fill: #8e8e8e; fill-opacity: 0.98; stroke: #ffffff; stroke-opacity: 0.98; stroke-width: 2"/>
    </g>
   </g>
   <g id="text_15">
    <g id="patch_5">
     <path d="M 76.387188 84.723062 
L 290.144688 84.723062 
L 290.144688 43.321562 
L 76.387188 43.321562 
L 76.387188 84.723062 
z
" style="fill: none; opacity: 0"/>
    </g>
    <!-- Rho = 0.37, p = 2.78e-02 -->
    <g transform="translate(80.387188 59.479062) scale(0.16 -0.16)">
     <defs>
      <path id="DejaVuSans-52" d="M 2841 2188 
Q 3044 2119 3236 1894 
Q 3428 1669 3622 1275 
L 4263 0 
L 3584 0 
L 2988 1197 
Q 2756 1666 2539 1819 
Q 2322 1972 1947 1972 
L 1259 1972 
L 1259 0 
L 628 0 
L 628 4666 
L 2053 4666 
Q 2853 4666 3247 4331 
Q 3641 3997 3641 3322 
Q 3641 2881 3436 2590 
Q 3231 2300 2841 2188 
z
M 1259 4147 
L 1259 2491 
L 2053 2491 
Q 2509 2491 2742 2702 
Q 2975 2913 2975 3322 
Q 2975 3731 2742 3939 
Q 2509 4147 2053 4147 
L 1259 4147 
z
" transform="scale(0.015625)"/>
      <path id="DejaVuSans-20" transform="scale(0.015625)"/>
      <path id="DejaVuSans-3d" d="M 678 2906 
L 4684 2906 
L 4684 2381 
L 678 2381 
L 678 2906 
z
M 678 1631 
L 4684 1631 
L 4684 1100 
L 678 1100 
L 678 1631 
z
" transform="scale(0.015625)"/>
      <path id="DejaVuSans-33" d="M 2597 2516 
Q 3050 2419 3304 2112 
Q 3559 1806 3559 1356 
Q 3559 666 3084 287 
Q 2609 -91 1734 -91 
Q 1441 -91 1130 -33 
Q 819 25 488 141 
L 488 750 
Q 750 597 1062 519 
Q 1375 441 1716 441 
Q 2309 441 2620 675 
Q 2931 909 2931 1356 
Q 2931 1769 2642 2001 
Q 2353 2234 1838 2234 
L 1294 2234 
L 1294 2753 
L 1863 2753 
Q 2328 2753 2575 2939 
Q 2822 3125 2822 3475 
Q 2822 3834 2567 4026 
Q 2313 4219 1838 4219 
Q 1578 4219 1281 4162 
Q 984 4106 628 3988 
L 628 4550 
Q 988 4650 1302 4700 
Q 1616 4750 1894 4750 
Q 2613 4750 3031 4423 
Q 3450 4097 3450 3541 
Q 3450 3153 3228 2886 
Q 3006 2619 2597 2516 
z
" transform="scale(0.015625)"/>
      <path id="DejaVuSans-37" d="M 525 4666 
L 3525 4666 
L 3525 4397 
L 1831 0 
L 1172 0 
L 2766 4134 
L 525 4134 
L 525 4666 
z
" transform="scale(0.015625)"/>
      <path id="DejaVuSans-2c" d="M 750 794 
L 1409 794 
L 1409 256 
L 897 -744 
L 494 -744 
L 750 256 
L 750 794 
z
" transform="scale(0.015625)"/>
      <path id="DejaVuSans-2d" d="M 313 2009 
L 1997 2009 
L 1997 1497 
L 313 1497 
L 313 2009 
z
" transform="scale(0.015625)"/>
     </defs>
     <use xlink:href="#DejaVuSans-52"/>
     <use xlink:href="#DejaVuSans-68" x="69.482422"/>
     <use xlink:href="#DejaVuSans-6f" x="132.861328"/>
     <use xlink:href="#DejaVuSans-20" x="194.042969"/>
     <use xlink:href="#DejaVuSans-3d" x="225.830078"/>
     <use xlink:href="#DejaVuSans-20" x="309.619141"/>
     <use xlink:href="#DejaVuSans-30" x="341.40625"/>
     <use xlink:href="#DejaVuSans-2e" x="405.029297"/>
     <use xlink:href="#DejaVuSans-33" x="436.816406"/>
     <use xlink:href="#DejaVuSans-37" x="500.439453"/>
     <use xlink:href="#DejaVuSans-2c" x="564.0625"/>
     <use xlink:href="#DejaVuSans-20" x="595.849609"/>
     <use xlink:href="#DejaVuSans-70" x="627.636719"/>
     <use xlink:href="#DejaVuSans-20" x="691.113281"/>
     <use xlink:href="#DejaVuSans-3d" x="722.900391"/>
     <use xlink:href="#DejaVuSans-20" x="806.689453"/>
     <use xlink:href="#DejaVuSans-32" x="838.476562"/>
     <use xlink:href="#DejaVuSans-2e" x="902.099609"/>
     <use xlink:href="#DejaVuSans-37" x="933.886719"/>
     <use xlink:href="#DejaVuSans-38" x="997.509766"/>
     <use xlink:href="#DejaVuSans-65" x="1061.132812"/>
     <use xlink:href="#DejaVuSans-2d" x="1122.65625"/>
     <use xlink:href="#DejaVuSans-30" x="1158.740234"/>
     <use xlink:href="#DejaVuSans-32" x="1222.363281"/>
    </g>
    <!-- R = 0.16, p = 3.44e-01 -->
    <g transform="translate(80.387188 77.395562) scale(0.16 -0.16)">
     <defs>
      <path id="DejaVuSans-31" d="M 794 531 
L 1825 531 
L 1825 4091 
L 703 3866 
L 703 4441 
L 1819 4666 
L 2450 4666 
L 2450 531 
L 3481 531 
L 3481 0 
L 794 0 
L 794 531 
z
" transform="scale(0.015625)"/>
     </defs>
     <use xlink:href="#DejaVuSans-52"/>
     <use xlink:href="#DejaVuSans-20" x="69.482422"/>
     <use xlink:href="#DejaVuSans-3d" x="101.269531"/>
     <use xlink:href="#DejaVuSans-20" x="185.058594"/>
     <use xlink:href="#DejaVuSans-30" x="216.845703"/>
     <use xlink:href="#DejaVuSans-2e" x="280.46875"/>
     <use xlink:href="#DejaVuSans-31" x="312.255859"/>
     <use xlink:href="#DejaVuSans-36" x="375.878906"/>
     <use xlink:href="#DejaVuSans-2c" x="439.501953"/>
     <use xlink:href="#DejaVuSans-20" x="471.289062"/>
     <use xlink:href="#DejaVuSans-70" x="503.076172"/>
     <use xlink:href="#DejaVuSans-20" x="566.552734"/>
     <use xlink:href="#DejaVuSans-3d" x="598.339844"/>
     <use xlink:href="#DejaVuSans-20" x="682.128906"/>
     <use xlink:href="#DejaVuSans-33" x="713.916016"/>
     <use xlink:href="#DejaVuSans-2e" x="777.539062"/>
     <use xlink:href="#DejaVuSans-34" x="809.326172"/>
     <use xlink:href="#DejaVuSans-34" x="872.949219"/>
     <use xlink:href="#DejaVuSans-65" x="936.572266"/>
     <use xlink:href="#DejaVuSans-2d" x="998.095703"/>
     <use xlink:href="#DejaVuSans-30" x="1034.179688"/>
     <use xlink:href="#DejaVuSans-31" x="1097.802734"/>
    </g>
   </g>
   <g id="text_16">
    <!-- DBS -->
    <g transform="translate(227.8375 22.396875) scale(0.2 -0.2)">
     <defs>
      <path id="DejaVuSans-42" d="M 1259 2228 
L 1259 519 
L 2272 519 
Q 2781 519 3026 730 
Q 3272 941 3272 1375 
Q 3272 1813 3026 2020 
Q 2781 2228 2272 2228 
L 1259 2228 
z
M 1259 4147 
L 1259 2741 
L 2194 2741 
Q 2656 2741 2882 2914 
Q 3109 3088 3109 3444 
Q 3109 3797 2882 3972 
Q 2656 4147 2194 4147 
L 1259 4147 
z
M 628 4666 
L 2241 4666 
Q 2963 4666 3353 4366 
Q 3744 4066 3744 3513 
Q 3744 3084 3544 2831 
Q 3344 2578 2956 2516 
Q 3422 2416 3680 2098 
Q 3938 1781 3938 1306 
Q 3938 681 3513 340 
Q 3088 0 2303 0 
L 628 0 
L 628 4666 
z
" transform="scale(0.015625)"/>
     </defs>
     <use xlink:href="#DejaVuSans-44"/>
     <use xlink:href="#DejaVuSans-42" x="77.001953"/>
     <use xlink:href="#DejaVuSans-53" x="143.855469"/>
    </g>
   </g>
  </g>
 </g>
 <defs>
  <clipPath id="p8b60f36606">
   <rect x="61.7" y="28.396875" width="373.74375" height="378.49375"/>
  </clipPath>
 </defs>
</svg>
