<?xml version="1.0" encoding="utf-8" standalone="no"?>
<!DOCTYPE svg PUBLIC "-//W3C//DTD SVG 1.1//EN"
  "http://www.w3.org/Graphics/SVG/1.1/DTD/svg11.dtd">
<svg xmlns:xlink="http://www.w3.org/1999/xlink" width="442.64375pt" height="460.488125pt" viewBox="0 0 442.64375 460.488125" xmlns="http://www.w3.org/2000/svg" version="1.1">
 <metadata>
  <rdf:RDF xmlns:dc="http://purl.org/dc/elements/1.1/" xmlns:cc="http://creativecommons.org/ns#" xmlns:rdf="http://www.w3.org/1999/02/22-rdf-syntax-ns#">
   <cc:Work>
    <dc:type rdf:resource="http://purl.org/dc/dcmitype/StillImage"/>
    <dc:date>2025-05-21T14:10:10.508151</dc:date>
    <dc:format>image/svg+xml</dc:format>
    <dc:creator>
     <cc:Agent>
      <dc:title>Matplotlib v3.6.2, https://matplotlib.org/</dc:title>
     </cc:Agent>
    </dc:creator>
   </cc:Work>
  </rdf:RDF>
 </metadata>
 <defs>
  <style type="text/css">*{stroke-linejoin: round; stroke-linecap: butt}</style>
 </defs>
 <g id="figure_1">
  <g id="patch_1">
   <path d="M 0 460.488125 
L 442.64375 460.488125 
L 442.64375 0 
L 0 0 
L 0 460.488125 
z
" style="fill: none"/>
  </g>
  <g id="axes_1">
   <g id="patch_2">
    <path d="M 61.7 406.890625 
L 435.44375 406.890625 
L 435.44375 28.396875 
L 61.7 28.396875 
z
" style="fill: #ffffff"/>
   </g>
   <g id="PolyCollection_1">
    <path d="M 78.688352 148.813503 
L 78.688352 256.251494 
L 82.120343 254.673826 
L 85.552333 253.092854 
L 88.984323 251.50846 
L 92.416314 249.924066 
L 95.848304 248.339672 
L 99.280294 246.843309 
L 102.712285 245.419495 
L 106.144275 243.995681 
L 109.576265 242.571867 
L 113.008256 241.148053 
L 116.440246 239.718352 
L 119.872237 238.285906 
L 123.304227 236.86479 
L 126.736217 235.448844 
L 130.168208 234.028982 
L 133.600198 232.605168 
L 137.032188 231.181353 
L 140.464179 229.744667 
L 143.896169 228.333725 
L 147.328159 226.912476 
L 150.76015 225.607323 
L 154.19214 224.317789 
L 157.624131 222.874933 
L 161.056121 221.236799 
L 164.488111 219.817879 
L 167.920102 218.39896 
L 171.352092 216.979655 
L 174.784082 215.551251 
L 178.216073 214.122847 
L 181.648063 212.669318 
L 185.080053 211.274656 
L 188.512044 209.855986 
L 191.944034 208.430848 
L 195.376024 207.018644 
L 198.808015 205.925149 
L 202.240005 204.819206 
L 205.671996 203.747313 
L 209.103986 202.301064 
L 212.535976 200.926693 
L 215.967967 199.634654 
L 219.399957 198.312397 
L 222.831947 197.148974 
L 226.263938 195.714569 
L 229.695928 194.622945 
L 233.127918 193.616275 
L 236.559909 192.514246 
L 239.991899 191.209511 
L 243.423889 190.002132 
L 246.85588 188.794754 
L 250.28787 187.587375 
L 253.719861 186.383183 
L 257.151851 185.248158 
L 260.583841 184.256976 
L 264.015832 183.200767 
L 267.447822 182.376137 
L 270.879812 181.076542 
L 274.311803 180.138938 
L 277.743793 179.275197 
L 281.175783 178.149153 
L 284.607774 176.773278 
L 288.039764 175.529568 
L 291.471754 174.375162 
L 294.903745 173.117234 
L 298.335735 172.186275 
L 301.767726 171.452996 
L 305.199716 170.445211 
L 308.631706 169.424914 
L 312.063697 168.669671 
L 315.495687 168.097552 
L 318.927677 167.524466 
L 322.359668 166.833334 
L 325.791658 165.862716 
L 329.223648 164.58694 
L 332.655639 163.662353 
L 336.087629 162.955973 
L 339.519619 161.828064 
L 342.95161 160.885308 
L 346.3836 159.849195 
L 349.815591 159.211639 
L 353.247581 158.380483 
L 356.679571 157.302298 
L 360.111562 156.536527 
L 363.543552 155.383309 
L 366.975542 154.104307 
L 370.407533 153.560521 
L 373.839523 153.580253 
L 377.271513 152.947512 
L 380.703504 152.146547 
L 384.135494 151.851024 
L 387.567485 151.055714 
L 390.999475 150.704502 
L 394.431465 150.392155 
L 397.863456 150.112252 
L 401.295446 149.673445 
L 404.727436 148.983293 
L 408.159427 148.392924 
L 411.591417 147.825335 
L 415.023407 147.143242 
L 418.455398 146.656086 
L 418.455398 88.202961 
L 418.455398 88.202961 
L 415.023407 89.225404 
L 411.591417 90.247846 
L 408.159427 91.270289 
L 404.727436 92.293902 
L 401.295446 93.320055 
L 397.863456 94.395679 
L 394.431465 95.36006 
L 390.999475 96.640765 
L 387.567485 98.107063 
L 384.135494 99.376056 
L 380.703504 100.661596 
L 377.271513 101.895087 
L 373.839523 102.866822 
L 370.407533 103.698236 
L 366.975542 104.957095 
L 363.543552 105.970637 
L 360.111562 107.216328 
L 356.679571 108.181293 
L 353.247581 109.161166 
L 349.815591 109.854833 
L 346.3836 110.910313 
L 342.95161 111.729069 
L 339.519619 112.630426 
L 336.087629 113.713397 
L 332.655639 114.451967 
L 329.223648 115.445695 
L 325.791658 115.951644 
L 322.359668 116.785184 
L 318.927677 117.42102 
L 315.495687 117.782809 
L 312.063697 118.725294 
L 308.631706 119.590114 
L 305.199716 120.268602 
L 301.767726 120.885545 
L 298.335735 121.564575 
L 294.903745 122.236096 
L 291.471754 122.921253 
L 288.039764 123.897375 
L 284.607774 124.302759 
L 281.175783 124.954674 
L 277.743793 125.635399 
L 274.311803 126.173577 
L 270.879812 126.331628 
L 267.447822 126.49468 
L 264.015832 126.918253 
L 260.583841 127.59155 
L 257.151851 128.309807 
L 253.719861 129.031608 
L 250.28787 129.753408 
L 246.85588 130.346225 
L 243.423889 131.073712 
L 239.991899 131.815066 
L 236.559909 132.564575 
L 233.127918 133.060749 
L 229.695928 133.492566 
L 226.263938 134.139463 
L 222.831947 134.639674 
L 219.399957 134.957306 
L 215.967967 135.586901 
L 212.535976 136.060793 
L 209.103986 136.534686 
L 205.671996 137.008579 
L 202.240005 137.482472 
L 198.808015 137.938101 
L 195.376024 138.236494 
L 191.944034 138.535158 
L 188.512044 138.888615 
L 185.080053 139.120805 
L 181.648063 139.547376 
L 178.216073 139.978621 
L 174.784082 140.405097 
L 171.352092 140.833958 
L 167.920102 141.115196 
L 164.488111 141.22994 
L 161.056121 141.498943 
L 157.624131 141.690302 
L 154.19214 141.882004 
L 150.76015 142.073706 
L 147.328159 142.332968 
L 143.896169 142.622563 
L 140.464179 142.912157 
L 137.032188 143.202642 
L 133.600198 143.500475 
L 130.168208 143.901177 
L 126.736217 144.414163 
L 123.304227 144.92715 
L 119.872237 145.440136 
L 116.440246 145.953123 
L 113.008256 146.283181 
L 109.576265 146.4255 
L 106.144275 146.56782 
L 102.712285 146.710139 
L 99.280294 146.852459 
L 95.848304 146.994779 
L 92.416314 147.137098 
L 88.984323 147.344071 
L 85.552333 147.832857 
L 82.120343 148.321642 
L 78.688352 148.813503 
z
" clip-path="url(#p0c635d9d24)" style="fill: #8e8e8e; fill-opacity: 0.15"/>
   </g>
   <g id="matplotlib.axis_1">
    <g id="xtick_1">
     <g id="line2d_1">
      <defs>
       <path id="m6d8e6a96a4" d="M 0 0 
L 0 3.5 
" style="stroke: #000000; stroke-width: 0.8"/>
      </defs>
      <g>
       <use xlink:href="#m6d8e6a96a4" x="137.766302" y="406.890625" style="stroke: #000000; stroke-width: 0.8"/>
      </g>
     </g>
     <g id="text_1">
      <!-- 0.10 -->
      <g transform="translate(119.953802 426.048125) scale(0.16 -0.16)">
       <defs>
        <path id="DejaVuSans-30" d="M 2034 4250 
Q 1547 4250 1301 3770 
Q 1056 3291 1056 2328 
Q 1056 1369 1301 889 
Q 1547 409 2034 409 
Q 2525 409 2770 889 
Q 3016 1369 3016 2328 
Q 3016 3291 2770 3770 
Q 2525 4250 2034 4250 
z
M 2034 4750 
Q 2819 4750 3233 4129 
Q 3647 3509 3647 2328 
Q 3647 1150 3233 529 
Q 2819 -91 2034 -91 
Q 1250 -91 836 529 
Q 422 1150 422 2328 
Q 422 3509 836 4129 
Q 1250 4750 2034 4750 
z
" transform="scale(0.015625)"/>
        <path id="DejaVuSans-2e" d="M 684 794 
L 1344 794 
L 1344 0 
L 684 0 
L 684 794 
z
" transform="scale(0.015625)"/>
        <path id="DejaVuSans-31" d="M 794 531 
L 1825 531 
L 1825 4091 
L 703 3866 
L 703 4441 
L 1819 4666 
L 2450 4666 
L 2450 531 
L 3481 531 
L 3481 0 
L 794 0 
L 794 531 
z
" transform="scale(0.015625)"/>
       </defs>
       <use xlink:href="#DejaVuSans-30"/>
       <use xlink:href="#DejaVuSans-2e" x="63.623047"/>
       <use xlink:href="#DejaVuSans-31" x="95.410156"/>
       <use xlink:href="#DejaVuSans-30" x="159.033203"/>
      </g>
     </g>
    </g>
    <g id="xtick_2">
     <g id="line2d_2">
      <g>
       <use xlink:href="#m6d8e6a96a4" x="228.209044" y="406.890625" style="stroke: #000000; stroke-width: 0.8"/>
      </g>
     </g>
     <g id="text_2">
      <!-- 0.15 -->
      <g transform="translate(210.396544 426.048125) scale(0.16 -0.16)">
       <defs>
        <path id="DejaVuSans-35" d="M 691 4666 
L 3169 4666 
L 3169 4134 
L 1269 4134 
L 1269 2991 
Q 1406 3038 1543 3061 
Q 1681 3084 1819 3084 
Q 2600 3084 3056 2656 
Q 3513 2228 3513 1497 
Q 3513 744 3044 326 
Q 2575 -91 1722 -91 
Q 1428 -91 1123 -41 
Q 819 9 494 109 
L 494 744 
Q 775 591 1075 516 
Q 1375 441 1709 441 
Q 2250 441 2565 725 
Q 2881 1009 2881 1497 
Q 2881 1984 2565 2268 
Q 2250 2553 1709 2553 
Q 1456 2553 1204 2497 
Q 953 2441 691 2322 
L 691 4666 
z
" transform="scale(0.015625)"/>
       </defs>
       <use xlink:href="#DejaVuSans-30"/>
       <use xlink:href="#DejaVuSans-2e" x="63.623047"/>
       <use xlink:href="#DejaVuSans-31" x="95.410156"/>
       <use xlink:href="#DejaVuSans-35" x="159.033203"/>
      </g>
     </g>
    </g>
    <g id="xtick_3">
     <g id="line2d_3">
      <g>
       <use xlink:href="#m6d8e6a96a4" x="318.651786" y="406.890625" style="stroke: #000000; stroke-width: 0.8"/>
      </g>
     </g>
     <g id="text_3">
      <!-- 0.20 -->
      <g transform="translate(300.839286 426.048125) scale(0.16 -0.16)">
       <defs>
        <path id="DejaVuSans-32" d="M 1228 531 
L 3431 531 
L 3431 0 
L 469 0 
L 469 531 
Q 828 903 1448 1529 
Q 2069 2156 2228 2338 
Q 2531 2678 2651 2914 
Q 2772 3150 2772 3378 
Q 2772 3750 2511 3984 
Q 2250 4219 1831 4219 
Q 1534 4219 1204 4116 
Q 875 4013 500 3803 
L 500 4441 
Q 881 4594 1212 4672 
Q 1544 4750 1819 4750 
Q 2544 4750 2975 4387 
Q 3406 4025 3406 3419 
Q 3406 3131 3298 2873 
Q 3191 2616 2906 2266 
Q 2828 2175 2409 1742 
Q 1991 1309 1228 531 
z
" transform="scale(0.015625)"/>
       </defs>
       <use xlink:href="#DejaVuSans-30"/>
       <use xlink:href="#DejaVuSans-2e" x="63.623047"/>
       <use xlink:href="#DejaVuSans-32" x="95.410156"/>
       <use xlink:href="#DejaVuSans-30" x="159.033203"/>
      </g>
     </g>
    </g>
    <g id="xtick_4">
     <g id="line2d_4">
      <g>
       <use xlink:href="#m6d8e6a96a4" x="409.094528" y="406.890625" style="stroke: #000000; stroke-width: 0.8"/>
      </g>
     </g>
     <g id="text_4">
      <!-- 0.25 -->
      <g transform="translate(391.282028 426.048125) scale(0.16 -0.16)">
       <use xlink:href="#DejaVuSans-30"/>
       <use xlink:href="#DejaVuSans-2e" x="63.623047"/>
       <use xlink:href="#DejaVuSans-32" x="95.410156"/>
       <use xlink:href="#DejaVuSans-35" x="159.033203"/>
      </g>
     </g>
    </g>
    <g id="text_5">
     <!-- all_datasets_weighted_avg_r_map_average_target_in_subject -->
     <g transform="translate(-58.778125 448.5725) scale(0.2 -0.2)">
      <defs>
       <path id="DejaVuSans-61" d="M 2194 1759 
Q 1497 1759 1228 1600 
Q 959 1441 959 1056 
Q 959 750 1161 570 
Q 1363 391 1709 391 
Q 2188 391 2477 730 
Q 2766 1069 2766 1631 
L 2766 1759 
L 2194 1759 
z
M 3341 1997 
L 3341 0 
L 2766 0 
L 2766 531 
Q 2569 213 2275 61 
Q 1981 -91 1556 -91 
Q 1019 -91 701 211 
Q 384 513 384 1019 
Q 384 1609 779 1909 
Q 1175 2209 1959 2209 
L 2766 2209 
L 2766 2266 
Q 2766 2663 2505 2880 
Q 2244 3097 1772 3097 
Q 1472 3097 1187 3025 
Q 903 2953 641 2809 
L 641 3341 
Q 956 3463 1253 3523 
Q 1550 3584 1831 3584 
Q 2591 3584 2966 3190 
Q 3341 2797 3341 1997 
z
" transform="scale(0.015625)"/>
       <path id="DejaVuSans-6c" d="M 603 4863 
L 1178 4863 
L 1178 0 
L 603 0 
L 603 4863 
z
" transform="scale(0.015625)"/>
       <path id="DejaVuSans-5f" d="M 3263 -1063 
L 3263 -1509 
L -63 -1509 
L -63 -1063 
L 3263 -1063 
z
" transform="scale(0.015625)"/>
       <path id="DejaVuSans-64" d="M 2906 2969 
L 2906 4863 
L 3481 4863 
L 3481 0 
L 2906 0 
L 2906 525 
Q 2725 213 2448 61 
Q 2172 -91 1784 -91 
Q 1150 -91 751 415 
Q 353 922 353 1747 
Q 353 2572 751 3078 
Q 1150 3584 1784 3584 
Q 2172 3584 2448 3432 
Q 2725 3281 2906 2969 
z
M 947 1747 
Q 947 1113 1208 752 
Q 1469 391 1925 391 
Q 2381 391 2643 752 
Q 2906 1113 2906 1747 
Q 2906 2381 2643 2742 
Q 2381 3103 1925 3103 
Q 1469 3103 1208 2742 
Q 947 2381 947 1747 
z
" transform="scale(0.015625)"/>
       <path id="DejaVuSans-74" d="M 1172 4494 
L 1172 3500 
L 2356 3500 
L 2356 3053 
L 1172 3053 
L 1172 1153 
Q 1172 725 1289 603 
Q 1406 481 1766 481 
L 2356 481 
L 2356 0 
L 1766 0 
Q 1100 0 847 248 
Q 594 497 594 1153 
L 594 3053 
L 172 3053 
L 172 3500 
L 594 3500 
L 594 4494 
L 1172 4494 
z
" transform="scale(0.015625)"/>
       <path id="DejaVuSans-73" d="M 2834 3397 
L 2834 2853 
Q 2591 2978 2328 3040 
Q 2066 3103 1784 3103 
Q 1356 3103 1142 2972 
Q 928 2841 928 2578 
Q 928 2378 1081 2264 
Q 1234 2150 1697 2047 
L 1894 2003 
Q 2506 1872 2764 1633 
Q 3022 1394 3022 966 
Q 3022 478 2636 193 
Q 2250 -91 1575 -91 
Q 1294 -91 989 -36 
Q 684 19 347 128 
L 347 722 
Q 666 556 975 473 
Q 1284 391 1588 391 
Q 1994 391 2212 530 
Q 2431 669 2431 922 
Q 2431 1156 2273 1281 
Q 2116 1406 1581 1522 
L 1381 1569 
Q 847 1681 609 1914 
Q 372 2147 372 2553 
Q 372 3047 722 3315 
Q 1072 3584 1716 3584 
Q 2034 3584 2315 3537 
Q 2597 3491 2834 3397 
z
" transform="scale(0.015625)"/>
       <path id="DejaVuSans-65" d="M 3597 1894 
L 3597 1613 
L 953 1613 
Q 991 1019 1311 708 
Q 1631 397 2203 397 
Q 2534 397 2845 478 
Q 3156 559 3463 722 
L 3463 178 
Q 3153 47 2828 -22 
Q 2503 -91 2169 -91 
Q 1331 -91 842 396 
Q 353 884 353 1716 
Q 353 2575 817 3079 
Q 1281 3584 2069 3584 
Q 2775 3584 3186 3129 
Q 3597 2675 3597 1894 
z
M 3022 2063 
Q 3016 2534 2758 2815 
Q 2500 3097 2075 3097 
Q 1594 3097 1305 2825 
Q 1016 2553 972 2059 
L 3022 2063 
z
" transform="scale(0.015625)"/>
       <path id="DejaVuSans-77" d="M 269 3500 
L 844 3500 
L 1563 769 
L 2278 3500 
L 2956 3500 
L 3675 769 
L 4391 3500 
L 4966 3500 
L 4050 0 
L 3372 0 
L 2619 2869 
L 1863 0 
L 1184 0 
L 269 3500 
z
" transform="scale(0.015625)"/>
       <path id="DejaVuSans-69" d="M 603 3500 
L 1178 3500 
L 1178 0 
L 603 0 
L 603 3500 
z
M 603 4863 
L 1178 4863 
L 1178 4134 
L 603 4134 
L 603 4863 
z
" transform="scale(0.015625)"/>
       <path id="DejaVuSans-67" d="M 2906 1791 
Q 2906 2416 2648 2759 
Q 2391 3103 1925 3103 
Q 1463 3103 1205 2759 
Q 947 2416 947 1791 
Q 947 1169 1205 825 
Q 1463 481 1925 481 
Q 2391 481 2648 825 
Q 2906 1169 2906 1791 
z
M 3481 434 
Q 3481 -459 3084 -895 
Q 2688 -1331 1869 -1331 
Q 1566 -1331 1297 -1286 
Q 1028 -1241 775 -1147 
L 775 -588 
Q 1028 -725 1275 -790 
Q 1522 -856 1778 -856 
Q 2344 -856 2625 -561 
Q 2906 -266 2906 331 
L 2906 616 
Q 2728 306 2450 153 
Q 2172 0 1784 0 
Q 1141 0 747 490 
Q 353 981 353 1791 
Q 353 2603 747 3093 
Q 1141 3584 1784 3584 
Q 2172 3584 2450 3431 
Q 2728 3278 2906 2969 
L 2906 3500 
L 3481 3500 
L 3481 434 
z
" transform="scale(0.015625)"/>
       <path id="DejaVuSans-68" d="M 3513 2113 
L 3513 0 
L 2938 0 
L 2938 2094 
Q 2938 2591 2744 2837 
Q 2550 3084 2163 3084 
Q 1697 3084 1428 2787 
Q 1159 2491 1159 1978 
L 1159 0 
L 581 0 
L 581 4863 
L 1159 4863 
L 1159 2956 
Q 1366 3272 1645 3428 
Q 1925 3584 2291 3584 
Q 2894 3584 3203 3211 
Q 3513 2838 3513 2113 
z
" transform="scale(0.015625)"/>
       <path id="DejaVuSans-76" d="M 191 3500 
L 800 3500 
L 1894 563 
L 2988 3500 
L 3597 3500 
L 2284 0 
L 1503 0 
L 191 3500 
z
" transform="scale(0.015625)"/>
       <path id="DejaVuSans-72" d="M 2631 2963 
Q 2534 3019 2420 3045 
Q 2306 3072 2169 3072 
Q 1681 3072 1420 2755 
Q 1159 2438 1159 1844 
L 1159 0 
L 581 0 
L 581 3500 
L 1159 3500 
L 1159 2956 
Q 1341 3275 1631 3429 
Q 1922 3584 2338 3584 
Q 2397 3584 2469 3576 
Q 2541 3569 2628 3553 
L 2631 2963 
z
" transform="scale(0.015625)"/>
       <path id="DejaVuSans-6d" d="M 3328 2828 
Q 3544 3216 3844 3400 
Q 4144 3584 4550 3584 
Q 5097 3584 5394 3201 
Q 5691 2819 5691 2113 
L 5691 0 
L 5113 0 
L 5113 2094 
Q 5113 2597 4934 2840 
Q 4756 3084 4391 3084 
Q 3944 3084 3684 2787 
Q 3425 2491 3425 1978 
L 3425 0 
L 2847 0 
L 2847 2094 
Q 2847 2600 2669 2842 
Q 2491 3084 2119 3084 
Q 1678 3084 1418 2786 
Q 1159 2488 1159 1978 
L 1159 0 
L 581 0 
L 581 3500 
L 1159 3500 
L 1159 2956 
Q 1356 3278 1631 3431 
Q 1906 3584 2284 3584 
Q 2666 3584 2933 3390 
Q 3200 3197 3328 2828 
z
" transform="scale(0.015625)"/>
       <path id="DejaVuSans-70" d="M 1159 525 
L 1159 -1331 
L 581 -1331 
L 581 3500 
L 1159 3500 
L 1159 2969 
Q 1341 3281 1617 3432 
Q 1894 3584 2278 3584 
Q 2916 3584 3314 3078 
Q 3713 2572 3713 1747 
Q 3713 922 3314 415 
Q 2916 -91 2278 -91 
Q 1894 -91 1617 61 
Q 1341 213 1159 525 
z
M 3116 1747 
Q 3116 2381 2855 2742 
Q 2594 3103 2138 3103 
Q 1681 3103 1420 2742 
Q 1159 2381 1159 1747 
Q 1159 1113 1420 752 
Q 1681 391 2138 391 
Q 2594 391 2855 752 
Q 3116 1113 3116 1747 
z
" transform="scale(0.015625)"/>
       <path id="DejaVuSans-6e" d="M 3513 2113 
L 3513 0 
L 2938 0 
L 2938 2094 
Q 2938 2591 2744 2837 
Q 2550 3084 2163 3084 
Q 1697 3084 1428 2787 
Q 1159 2491 1159 1978 
L 1159 0 
L 581 0 
L 581 3500 
L 1159 3500 
L 1159 2956 
Q 1366 3272 1645 3428 
Q 1925 3584 2291 3584 
Q 2894 3584 3203 3211 
Q 3513 2838 3513 2113 
z
" transform="scale(0.015625)"/>
       <path id="DejaVuSans-75" d="M 544 1381 
L 544 3500 
L 1119 3500 
L 1119 1403 
Q 1119 906 1312 657 
Q 1506 409 1894 409 
Q 2359 409 2629 706 
Q 2900 1003 2900 1516 
L 2900 3500 
L 3475 3500 
L 3475 0 
L 2900 0 
L 2900 538 
Q 2691 219 2414 64 
Q 2138 -91 1772 -91 
Q 1169 -91 856 284 
Q 544 659 544 1381 
z
M 1991 3584 
L 1991 3584 
z
" transform="scale(0.015625)"/>
       <path id="DejaVuSans-62" d="M 3116 1747 
Q 3116 2381 2855 2742 
Q 2594 3103 2138 3103 
Q 1681 3103 1420 2742 
Q 1159 2381 1159 1747 
Q 1159 1113 1420 752 
Q 1681 391 2138 391 
Q 2594 391 2855 752 
Q 3116 1113 3116 1747 
z
M 1159 2969 
Q 1341 3281 1617 3432 
Q 1894 3584 2278 3584 
Q 2916 3584 3314 3078 
Q 3713 2572 3713 1747 
Q 3713 922 3314 415 
Q 2916 -91 2278 -91 
Q 1894 -91 1617 61 
Q 1341 213 1159 525 
L 1159 0 
L 581 0 
L 581 4863 
L 1159 4863 
L 1159 2969 
z
" transform="scale(0.015625)"/>
       <path id="DejaVuSans-6a" d="M 603 3500 
L 1178 3500 
L 1178 -63 
Q 1178 -731 923 -1031 
Q 669 -1331 103 -1331 
L -116 -1331 
L -116 -844 
L 38 -844 
Q 366 -844 484 -692 
Q 603 -541 603 -63 
L 603 3500 
z
M 603 4863 
L 1178 4863 
L 1178 4134 
L 603 4134 
L 603 4863 
z
" transform="scale(0.015625)"/>
       <path id="DejaVuSans-63" d="M 3122 3366 
L 3122 2828 
Q 2878 2963 2633 3030 
Q 2388 3097 2138 3097 
Q 1578 3097 1268 2742 
Q 959 2388 959 1747 
Q 959 1106 1268 751 
Q 1578 397 2138 397 
Q 2388 397 2633 464 
Q 2878 531 3122 666 
L 3122 134 
Q 2881 22 2623 -34 
Q 2366 -91 2075 -91 
Q 1284 -91 818 406 
Q 353 903 353 1747 
Q 353 2603 823 3093 
Q 1294 3584 2113 3584 
Q 2378 3584 2631 3529 
Q 2884 3475 3122 3366 
z
" transform="scale(0.015625)"/>
      </defs>
      <use xlink:href="#DejaVuSans-61"/>
      <use xlink:href="#DejaVuSans-6c" x="61.279297"/>
      <use xlink:href="#DejaVuSans-6c" x="89.0625"/>
      <use xlink:href="#DejaVuSans-5f" x="116.845703"/>
      <use xlink:href="#DejaVuSans-64" x="166.845703"/>
      <use xlink:href="#DejaVuSans-61" x="230.322266"/>
      <use xlink:href="#DejaVuSans-74" x="291.601562"/>
      <use xlink:href="#DejaVuSans-61" x="330.810547"/>
      <use xlink:href="#DejaVuSans-73" x="392.089844"/>
      <use xlink:href="#DejaVuSans-65" x="444.189453"/>
      <use xlink:href="#DejaVuSans-74" x="505.712891"/>
      <use xlink:href="#DejaVuSans-73" x="544.921875"/>
      <use xlink:href="#DejaVuSans-5f" x="597.021484"/>
      <use xlink:href="#DejaVuSans-77" x="647.021484"/>
      <use xlink:href="#DejaVuSans-65" x="728.808594"/>
      <use xlink:href="#DejaVuSans-69" x="790.332031"/>
      <use xlink:href="#DejaVuSans-67" x="818.115234"/>
      <use xlink:href="#DejaVuSans-68" x="881.591797"/>
      <use xlink:href="#DejaVuSans-74" x="944.970703"/>
      <use xlink:href="#DejaVuSans-65" x="984.179688"/>
      <use xlink:href="#DejaVuSans-64" x="1045.703125"/>
      <use xlink:href="#DejaVuSans-5f" x="1109.179688"/>
      <use xlink:href="#DejaVuSans-61" x="1159.179688"/>
      <use xlink:href="#DejaVuSans-76" x="1220.458984"/>
      <use xlink:href="#DejaVuSans-67" x="1279.638672"/>
      <use xlink:href="#DejaVuSans-5f" x="1343.115234"/>
      <use xlink:href="#DejaVuSans-72" x="1393.115234"/>
      <use xlink:href="#DejaVuSans-5f" x="1434.228516"/>
      <use xlink:href="#DejaVuSans-6d" x="1484.228516"/>
      <use xlink:href="#DejaVuSans-61" x="1581.640625"/>
      <use xlink:href="#DejaVuSans-70" x="1642.919922"/>
      <use xlink:href="#DejaVuSans-5f" x="1706.396484"/>
      <use xlink:href="#DejaVuSans-61" x="1756.396484"/>
      <use xlink:href="#DejaVuSans-76" x="1817.675781"/>
      <use xlink:href="#DejaVuSans-65" x="1876.855469"/>
      <use xlink:href="#DejaVuSans-72" x="1938.378906"/>
      <use xlink:href="#DejaVuSans-61" x="1979.492188"/>
      <use xlink:href="#DejaVuSans-67" x="2040.771484"/>
      <use xlink:href="#DejaVuSans-65" x="2104.248047"/>
      <use xlink:href="#DejaVuSans-5f" x="2165.771484"/>
      <use xlink:href="#DejaVuSans-74" x="2215.771484"/>
      <use xlink:href="#DejaVuSans-61" x="2254.980469"/>
      <use xlink:href="#DejaVuSans-72" x="2316.259766"/>
      <use xlink:href="#DejaVuSans-67" x="2355.623047"/>
      <use xlink:href="#DejaVuSans-65" x="2419.099609"/>
      <use xlink:href="#DejaVuSans-74" x="2480.623047"/>
      <use xlink:href="#DejaVuSans-5f" x="2519.832031"/>
      <use xlink:href="#DejaVuSans-69" x="2569.832031"/>
      <use xlink:href="#DejaVuSans-6e" x="2597.615234"/>
      <use xlink:href="#DejaVuSans-5f" x="2660.994141"/>
      <use xlink:href="#DejaVuSans-73" x="2710.994141"/>
      <use xlink:href="#DejaVuSans-75" x="2763.09375"/>
      <use xlink:href="#DejaVuSans-62" x="2826.472656"/>
      <use xlink:href="#DejaVuSans-6a" x="2889.949219"/>
      <use xlink:href="#DejaVuSans-65" x="2917.732422"/>
      <use xlink:href="#DejaVuSans-63" x="2979.255859"/>
      <use xlink:href="#DejaVuSans-74" x="3034.236328"/>
     </g>
    </g>
   </g>
   <g id="matplotlib.axis_2">
    <g id="ytick_1">
     <g id="line2d_5">
      <defs>
       <path id="m39d199b97b" d="M 0 0 
L -3.5 0 
" style="stroke: #000000; stroke-width: 0.8"/>
      </defs>
      <g>
       <use xlink:href="#m39d199b97b" x="61.7" y="369.777782" style="stroke: #000000; stroke-width: 0.8"/>
      </g>
     </g>
     <g id="text_6">
      <!-- −6 -->
      <g transform="translate(31.1125 375.856532) scale(0.16 -0.16)">
       <defs>
        <path id="DejaVuSans-2212" d="M 678 2272 
L 4684 2272 
L 4684 1741 
L 678 1741 
L 678 2272 
z
" transform="scale(0.015625)"/>
        <path id="DejaVuSans-36" d="M 2113 2584 
Q 1688 2584 1439 2293 
Q 1191 2003 1191 1497 
Q 1191 994 1439 701 
Q 1688 409 2113 409 
Q 2538 409 2786 701 
Q 3034 994 3034 1497 
Q 3034 2003 2786 2293 
Q 2538 2584 2113 2584 
z
M 3366 4563 
L 3366 3988 
Q 3128 4100 2886 4159 
Q 2644 4219 2406 4219 
Q 1781 4219 1451 3797 
Q 1122 3375 1075 2522 
Q 1259 2794 1537 2939 
Q 1816 3084 2150 3084 
Q 2853 3084 3261 2657 
Q 3669 2231 3669 1497 
Q 3669 778 3244 343 
Q 2819 -91 2113 -91 
Q 1303 -91 875 529 
Q 447 1150 447 2328 
Q 447 3434 972 4092 
Q 1497 4750 2381 4750 
Q 2619 4750 2861 4703 
Q 3103 4656 3366 4563 
z
" transform="scale(0.015625)"/>
       </defs>
       <use xlink:href="#DejaVuSans-2212"/>
       <use xlink:href="#DejaVuSans-36" x="83.789062"/>
      </g>
     </g>
    </g>
    <g id="ytick_2">
     <g id="line2d_6">
      <g>
       <use xlink:href="#m39d199b97b" x="61.7" y="287.930885" style="stroke: #000000; stroke-width: 0.8"/>
      </g>
     </g>
     <g id="text_7">
      <!-- −4 -->
      <g transform="translate(31.1125 294.009635) scale(0.16 -0.16)">
       <defs>
        <path id="DejaVuSans-34" d="M 2419 4116 
L 825 1625 
L 2419 1625 
L 2419 4116 
z
M 2253 4666 
L 3047 4666 
L 3047 1625 
L 3713 1625 
L 3713 1100 
L 3047 1100 
L 3047 0 
L 2419 0 
L 2419 1100 
L 313 1100 
L 313 1709 
L 2253 4666 
z
" transform="scale(0.015625)"/>
       </defs>
       <use xlink:href="#DejaVuSans-2212"/>
       <use xlink:href="#DejaVuSans-34" x="83.789062"/>
      </g>
     </g>
    </g>
    <g id="ytick_3">
     <g id="line2d_7">
      <g>
       <use xlink:href="#m39d199b97b" x="61.7" y="206.083988" style="stroke: #000000; stroke-width: 0.8"/>
      </g>
     </g>
     <g id="text_8">
      <!-- −2 -->
      <g transform="translate(31.1125 212.162738) scale(0.16 -0.16)">
       <use xlink:href="#DejaVuSans-2212"/>
       <use xlink:href="#DejaVuSans-32" x="83.789062"/>
      </g>
     </g>
    </g>
    <g id="ytick_4">
     <g id="line2d_8">
      <g>
       <use xlink:href="#m39d199b97b" x="61.7" y="124.237091" style="stroke: #000000; stroke-width: 0.8"/>
      </g>
     </g>
     <g id="text_9">
      <!-- 0 -->
      <g transform="translate(44.52 130.315841) scale(0.16 -0.16)">
       <use xlink:href="#DejaVuSans-30"/>
      </g>
     </g>
    </g>
    <g id="ytick_5">
     <g id="line2d_9">
      <g>
       <use xlink:href="#m39d199b97b" x="61.7" y="42.390194" style="stroke: #000000; stroke-width: 0.8"/>
      </g>
     </g>
     <g id="text_10">
      <!-- 2 -->
      <g transform="translate(44.52 48.468944) scale(0.16 -0.16)">
       <use xlink:href="#DejaVuSans-32"/>
      </g>
     </g>
    </g>
    <g id="text_11">
     <!-- Pre_Post_Memory_Effect_Size__Cohen_s_D_ -->
     <g transform="translate(22.396875 434.421875) rotate(-90) scale(0.2 -0.2)">
      <defs>
       <path id="DejaVuSans-50" d="M 1259 4147 
L 1259 2394 
L 2053 2394 
Q 2494 2394 2734 2622 
Q 2975 2850 2975 3272 
Q 2975 3691 2734 3919 
Q 2494 4147 2053 4147 
L 1259 4147 
z
M 628 4666 
L 2053 4666 
Q 2838 4666 3239 4311 
Q 3641 3956 3641 3272 
Q 3641 2581 3239 2228 
Q 2838 1875 2053 1875 
L 1259 1875 
L 1259 0 
L 628 0 
L 628 4666 
z
" transform="scale(0.015625)"/>
       <path id="DejaVuSans-6f" d="M 1959 3097 
Q 1497 3097 1228 2736 
Q 959 2375 959 1747 
Q 959 1119 1226 758 
Q 1494 397 1959 397 
Q 2419 397 2687 759 
Q 2956 1122 2956 1747 
Q 2956 2369 2687 2733 
Q 2419 3097 1959 3097 
z
M 1959 3584 
Q 2709 3584 3137 3096 
Q 3566 2609 3566 1747 
Q 3566 888 3137 398 
Q 2709 -91 1959 -91 
Q 1206 -91 779 398 
Q 353 888 353 1747 
Q 353 2609 779 3096 
Q 1206 3584 1959 3584 
z
" transform="scale(0.015625)"/>
       <path id="DejaVuSans-4d" d="M 628 4666 
L 1569 4666 
L 2759 1491 
L 3956 4666 
L 4897 4666 
L 4897 0 
L 4281 0 
L 4281 4097 
L 3078 897 
L 2444 897 
L 1241 4097 
L 1241 0 
L 628 0 
L 628 4666 
z
" transform="scale(0.015625)"/>
       <path id="DejaVuSans-79" d="M 2059 -325 
Q 1816 -950 1584 -1140 
Q 1353 -1331 966 -1331 
L 506 -1331 
L 506 -850 
L 844 -850 
Q 1081 -850 1212 -737 
Q 1344 -625 1503 -206 
L 1606 56 
L 191 3500 
L 800 3500 
L 1894 763 
L 2988 3500 
L 3597 3500 
L 2059 -325 
z
" transform="scale(0.015625)"/>
       <path id="DejaVuSans-45" d="M 628 4666 
L 3578 4666 
L 3578 4134 
L 1259 4134 
L 1259 2753 
L 3481 2753 
L 3481 2222 
L 1259 2222 
L 1259 531 
L 3634 531 
L 3634 0 
L 628 0 
L 628 4666 
z
" transform="scale(0.015625)"/>
       <path id="DejaVuSans-66" d="M 2375 4863 
L 2375 4384 
L 1825 4384 
Q 1516 4384 1395 4259 
Q 1275 4134 1275 3809 
L 1275 3500 
L 2222 3500 
L 2222 3053 
L 1275 3053 
L 1275 0 
L 697 0 
L 697 3053 
L 147 3053 
L 147 3500 
L 697 3500 
L 697 3744 
Q 697 4328 969 4595 
Q 1241 4863 1831 4863 
L 2375 4863 
z
" transform="scale(0.015625)"/>
       <path id="DejaVuSans-53" d="M 3425 4513 
L 3425 3897 
Q 3066 4069 2747 4153 
Q 2428 4238 2131 4238 
Q 1616 4238 1336 4038 
Q 1056 3838 1056 3469 
Q 1056 3159 1242 3001 
Q 1428 2844 1947 2747 
L 2328 2669 
Q 3034 2534 3370 2195 
Q 3706 1856 3706 1288 
Q 3706 609 3251 259 
Q 2797 -91 1919 -91 
Q 1588 -91 1214 -16 
Q 841 59 441 206 
L 441 856 
Q 825 641 1194 531 
Q 1563 422 1919 422 
Q 2459 422 2753 634 
Q 3047 847 3047 1241 
Q 3047 1584 2836 1778 
Q 2625 1972 2144 2069 
L 1759 2144 
Q 1053 2284 737 2584 
Q 422 2884 422 3419 
Q 422 4038 858 4394 
Q 1294 4750 2059 4750 
Q 2388 4750 2728 4690 
Q 3069 4631 3425 4513 
z
" transform="scale(0.015625)"/>
       <path id="DejaVuSans-7a" d="M 353 3500 
L 3084 3500 
L 3084 2975 
L 922 459 
L 3084 459 
L 3084 0 
L 275 0 
L 275 525 
L 2438 3041 
L 353 3041 
L 353 3500 
z
" transform="scale(0.015625)"/>
       <path id="DejaVuSans-43" d="M 4122 4306 
L 4122 3641 
Q 3803 3938 3442 4084 
Q 3081 4231 2675 4231 
Q 1875 4231 1450 3742 
Q 1025 3253 1025 2328 
Q 1025 1406 1450 917 
Q 1875 428 2675 428 
Q 3081 428 3442 575 
Q 3803 722 4122 1019 
L 4122 359 
Q 3791 134 3420 21 
Q 3050 -91 2638 -91 
Q 1578 -91 968 557 
Q 359 1206 359 2328 
Q 359 3453 968 4101 
Q 1578 4750 2638 4750 
Q 3056 4750 3426 4639 
Q 3797 4528 4122 4306 
z
" transform="scale(0.015625)"/>
       <path id="DejaVuSans-44" d="M 1259 4147 
L 1259 519 
L 2022 519 
Q 2988 519 3436 956 
Q 3884 1394 3884 2338 
Q 3884 3275 3436 3711 
Q 2988 4147 2022 4147 
L 1259 4147 
z
M 628 4666 
L 1925 4666 
Q 3281 4666 3915 4102 
Q 4550 3538 4550 2338 
Q 4550 1131 3912 565 
Q 3275 0 1925 0 
L 628 0 
L 628 4666 
z
" transform="scale(0.015625)"/>
      </defs>
      <use xlink:href="#DejaVuSans-50"/>
      <use xlink:href="#DejaVuSans-72" x="58.552734"/>
      <use xlink:href="#DejaVuSans-65" x="97.416016"/>
      <use xlink:href="#DejaVuSans-5f" x="158.939453"/>
      <use xlink:href="#DejaVuSans-50" x="208.939453"/>
      <use xlink:href="#DejaVuSans-6f" x="265.617188"/>
      <use xlink:href="#DejaVuSans-73" x="326.798828"/>
      <use xlink:href="#DejaVuSans-74" x="378.898438"/>
      <use xlink:href="#DejaVuSans-5f" x="418.107422"/>
      <use xlink:href="#DejaVuSans-4d" x="468.107422"/>
      <use xlink:href="#DejaVuSans-65" x="554.386719"/>
      <use xlink:href="#DejaVuSans-6d" x="615.910156"/>
      <use xlink:href="#DejaVuSans-6f" x="713.322266"/>
      <use xlink:href="#DejaVuSans-72" x="774.503906"/>
      <use xlink:href="#DejaVuSans-79" x="815.617188"/>
      <use xlink:href="#DejaVuSans-5f" x="874.796875"/>
      <use xlink:href="#DejaVuSans-45" x="924.796875"/>
      <use xlink:href="#DejaVuSans-66" x="987.980469"/>
      <use xlink:href="#DejaVuSans-66" x="1023.185547"/>
      <use xlink:href="#DejaVuSans-65" x="1058.390625"/>
      <use xlink:href="#DejaVuSans-63" x="1119.914062"/>
      <use xlink:href="#DejaVuSans-74" x="1174.894531"/>
      <use xlink:href="#DejaVuSans-5f" x="1214.103516"/>
      <use xlink:href="#DejaVuSans-53" x="1264.103516"/>
      <use xlink:href="#DejaVuSans-69" x="1327.580078"/>
      <use xlink:href="#DejaVuSans-7a" x="1355.363281"/>
      <use xlink:href="#DejaVuSans-65" x="1407.853516"/>
      <use xlink:href="#DejaVuSans-5f" x="1469.376953"/>
      <use xlink:href="#DejaVuSans-5f" x="1519.376953"/>
      <use xlink:href="#DejaVuSans-43" x="1569.376953"/>
      <use xlink:href="#DejaVuSans-6f" x="1639.201172"/>
      <use xlink:href="#DejaVuSans-68" x="1700.382812"/>
      <use xlink:href="#DejaVuSans-65" x="1763.761719"/>
      <use xlink:href="#DejaVuSans-6e" x="1825.285156"/>
      <use xlink:href="#DejaVuSans-5f" x="1888.664062"/>
      <use xlink:href="#DejaVuSans-73" x="1938.664062"/>
      <use xlink:href="#DejaVuSans-5f" x="1990.763672"/>
      <use xlink:href="#DejaVuSans-44" x="2040.763672"/>
      <use xlink:href="#DejaVuSans-5f" x="2117.765625"/>
     </g>
    </g>
   </g>
   <g id="line2d_10">
    <path d="M 78.688352 199.21764 
L 82.120343 198.399255 
L 85.552333 197.58087 
L 88.984323 196.762486 
L 92.416314 195.944101 
L 95.848304 195.125716 
L 99.280294 194.307332 
L 102.712285 193.488947 
L 106.144275 192.670562 
L 109.576265 191.852178 
L 113.008256 191.033793 
L 116.440246 190.215409 
L 119.872237 189.397024 
L 123.304227 188.578639 
L 126.736217 187.760255 
L 130.168208 186.94187 
L 133.600198 186.123485 
L 137.032188 185.305101 
L 140.464179 184.486716 
L 143.896169 183.668331 
L 147.328159 182.849947 
L 150.76015 182.031562 
L 154.19214 181.213178 
L 157.624131 180.394793 
L 161.056121 179.576408 
L 164.488111 178.758024 
L 167.920102 177.939639 
L 171.352092 177.121254 
L 174.784082 176.30287 
L 178.216073 175.484485 
L 181.648063 174.6661 
L 185.080053 173.847716 
L 188.512044 173.029331 
L 191.944034 172.210946 
L 195.376024 171.392562 
L 198.808015 170.574177 
L 202.240005 169.755793 
L 205.671996 168.937408 
L 209.103986 168.119023 
L 212.535976 167.300639 
L 215.967967 166.482254 
L 219.399957 165.663869 
L 222.831947 164.845485 
L 226.263938 164.0271 
L 229.695928 163.208715 
L 233.127918 162.390331 
L 236.559909 161.571946 
L 239.991899 160.753562 
L 243.423889 159.935177 
L 246.85588 159.116792 
L 250.28787 158.298408 
L 253.719861 157.480023 
L 257.151851 156.661638 
L 260.583841 155.843254 
L 264.015832 155.024869 
L 267.447822 154.206484 
L 270.879812 153.3881 
L 274.311803 152.569715 
L 277.743793 151.751331 
L 281.175783 150.932946 
L 284.607774 150.114561 
L 288.039764 149.296177 
L 291.471754 148.477792 
L 294.903745 147.659407 
L 298.335735 146.841023 
L 301.767726 146.022638 
L 305.199716 145.204253 
L 308.631706 144.385869 
L 312.063697 143.567484 
L 315.495687 142.749099 
L 318.927677 141.930715 
L 322.359668 141.11233 
L 325.791658 140.293946 
L 329.223648 139.475561 
L 332.655639 138.657176 
L 336.087629 137.838792 
L 339.519619 137.020407 
L 342.95161 136.202022 
L 346.3836 135.383638 
L 349.815591 134.565253 
L 353.247581 133.746868 
L 356.679571 132.928484 
L 360.111562 132.110099 
L 363.543552 131.291715 
L 366.975542 130.47333 
L 370.407533 129.654945 
L 373.839523 128.836561 
L 377.271513 128.018176 
L 380.703504 127.199791 
L 384.135494 126.381407 
L 387.567485 125.563022 
L 390.999475 124.744637 
L 394.431465 123.926253 
L 397.863456 123.107868 
L 401.295446 122.289484 
L 404.727436 121.471099 
L 408.159427 120.652714 
L 411.591417 119.83433 
L 415.023407 119.015945 
L 418.455398 118.19756 
" clip-path="url(#p0c635d9d24)" style="fill: none; stroke: #8e8e8e; stroke-width: 2.25; stroke-linecap: square"/>
   </g>
   <g id="patch_3">
    <path d="M 61.7 406.890625 
L 61.7 28.396875 
" style="fill: none; stroke: #000000; stroke-width: 2; stroke-linejoin: miter; stroke-linecap: square"/>
   </g>
   <g id="patch_4">
    <path d="M 61.7 406.890625 
L 435.44375 406.890625 
" style="fill: none; stroke: #000000; stroke-width: 2; stroke-linejoin: miter; stroke-linecap: square"/>
   </g>
   <g id="PathCollection_1">
    <defs>
     <path id="m9010fffbe6" d="M 0 6.123724 
C 1.624031 6.123724 3.181764 5.47849 4.330127 4.330127 
C 5.47849 3.181764 6.123724 1.624031 6.123724 0 
C 6.123724 -1.624031 5.47849 -3.181764 4.330127 -4.330127 
C 3.181764 -5.47849 1.624031 -6.123724 0 -6.123724 
C -1.624031 -6.123724 -3.181764 -5.47849 -4.330127 -4.330127 
C -5.47849 -3.181764 -6.123724 -1.624031 -6.123724 0 
C -6.123724 1.624031 -5.47849 3.181764 -4.330127 4.330127 
C -3.181764 5.47849 -1.624031 6.123724 0 6.123724 
z
" style="stroke: #ffffff; stroke-opacity: 0.98; stroke-width: 2"/>
    </defs>
    <g clip-path="url(#p0c635d9d24)">
     <use xlink:href="#m9010fffbe6" x="418.455398" y="58.410509" style="fill: #8e8e8e; fill-opacity: 0.98; stroke: #ffffff; stroke-opacity: 0.98; stroke-width: 2"/>
     <use xlink:href="#m9010fffbe6" x="78.688352" y="385.341699" style="fill: #8e8e8e; fill-opacity: 0.98; stroke: #ffffff; stroke-opacity: 0.98; stroke-width: 2"/>
     <use xlink:href="#m9010fffbe6" x="78.688352" y="235.046316" style="fill: #8e8e8e; fill-opacity: 0.98; stroke: #ffffff; stroke-opacity: 0.98; stroke-width: 2"/>
     <use xlink:href="#m9010fffbe6" x="418.455398" y="82.205219" style="fill: #8e8e8e; fill-opacity: 0.98; stroke: #ffffff; stroke-opacity: 0.98; stroke-width: 2"/>
     <use xlink:href="#m9010fffbe6" x="78.688352" y="122.985016" style="fill: #8e8e8e; fill-opacity: 0.98; stroke: #ffffff; stroke-opacity: 0.98; stroke-width: 2"/>
     <use xlink:href="#m9010fffbe6" x="418.455398" y="174.247193" style="fill: #8e8e8e; fill-opacity: 0.98; stroke: #ffffff; stroke-opacity: 0.98; stroke-width: 2"/>
     <use xlink:href="#m9010fffbe6" x="200.495887" y="148.675915" style="fill: #8e8e8e; fill-opacity: 0.98; stroke: #ffffff; stroke-opacity: 0.98; stroke-width: 2"/>
     <use xlink:href="#m9010fffbe6" x="418.455398" y="173.948733" style="fill: #8e8e8e; fill-opacity: 0.98; stroke: #ffffff; stroke-opacity: 0.98; stroke-width: 2"/>
     <use xlink:href="#m9010fffbe6" x="78.688352" y="177.636091" style="fill: #8e8e8e; fill-opacity: 0.98; stroke: #ffffff; stroke-opacity: 0.98; stroke-width: 2"/>
     <use xlink:href="#m9010fffbe6" x="78.688352" y="188.004895" style="fill: #8e8e8e; fill-opacity: 0.98; stroke: #ffffff; stroke-opacity: 0.98; stroke-width: 2"/>
     <use xlink:href="#m9010fffbe6" x="418.455398" y="55.518448" style="fill: #8e8e8e; fill-opacity: 0.98; stroke: #ffffff; stroke-opacity: 0.98; stroke-width: 2"/>
     <use xlink:href="#m9010fffbe6" x="78.688352" y="45.601136" style="fill: #8e8e8e; fill-opacity: 0.98; stroke: #ffffff; stroke-opacity: 0.98; stroke-width: 2"/>
     <use xlink:href="#m9010fffbe6" x="418.455398" y="99.354844" style="fill: #8e8e8e; fill-opacity: 0.98; stroke: #ffffff; stroke-opacity: 0.98; stroke-width: 2"/>
     <use xlink:href="#m9010fffbe6" x="418.455398" y="158.869353" style="fill: #8e8e8e; fill-opacity: 0.98; stroke: #ffffff; stroke-opacity: 0.98; stroke-width: 2"/>
     <use xlink:href="#m9010fffbe6" x="418.455398" y="86.225409" style="fill: #8e8e8e; fill-opacity: 0.98; stroke: #ffffff; stroke-opacity: 0.98; stroke-width: 2"/>
     <use xlink:href="#m9010fffbe6" x="78.688352" y="167.727801" style="fill: #8e8e8e; fill-opacity: 0.98; stroke: #ffffff; stroke-opacity: 0.98; stroke-width: 2"/>
     <use xlink:href="#m9010fffbe6" x="418.455398" y="132.271428" style="fill: #8e8e8e; fill-opacity: 0.98; stroke: #ffffff; stroke-opacity: 0.98; stroke-width: 2"/>
     <use xlink:href="#m9010fffbe6" x="78.688352" y="116.385519" style="fill: #8e8e8e; fill-opacity: 0.98; stroke: #ffffff; stroke-opacity: 0.98; stroke-width: 2"/>
     <use xlink:href="#m9010fffbe6" x="78.688352" y="142.75821" style="fill: #8e8e8e; fill-opacity: 0.98; stroke: #ffffff; stroke-opacity: 0.98; stroke-width: 2"/>
     <use xlink:href="#m9010fffbe6" x="78.688352" y="170.116068" style="fill: #8e8e8e; fill-opacity: 0.98; stroke: #ffffff; stroke-opacity: 0.98; stroke-width: 2"/>
     <use xlink:href="#m9010fffbe6" x="78.688352" y="137.15456" style="fill: #8e8e8e; fill-opacity: 0.98; stroke: #ffffff; stroke-opacity: 0.98; stroke-width: 2"/>
     <use xlink:href="#m9010fffbe6" x="78.688352" y="389.686364" style="fill: #8e8e8e; fill-opacity: 0.98; stroke: #ffffff; stroke-opacity: 0.98; stroke-width: 2"/>
     <use xlink:href="#m9010fffbe6" x="78.688352" y="342.466075" style="fill: #8e8e8e; fill-opacity: 0.98; stroke: #ffffff; stroke-opacity: 0.98; stroke-width: 2"/>
     <use xlink:href="#m9010fffbe6" x="418.455398" y="168.63077" style="fill: #8e8e8e; fill-opacity: 0.98; stroke: #ffffff; stroke-opacity: 0.98; stroke-width: 2"/>
     <use xlink:href="#m9010fffbe6" x="78.688352" y="181.926678" style="fill: #8e8e8e; fill-opacity: 0.98; stroke: #ffffff; stroke-opacity: 0.98; stroke-width: 2"/>
    </g>
   </g>
   <g id="text_12">
    <g id="patch_5">
     <path d="M 76.387188 84.723062 
L 290.144688 84.723062 
L 290.144688 43.321562 
L 76.387188 43.321562 
L 76.387188 84.723062 
z
" style="fill: none; opacity: 0"/>
    </g>
    <!-- Rho = 0.44, p = 2.69e-02 -->
    <g transform="translate(80.387188 59.479062) scale(0.16 -0.16)">
     <defs>
      <path id="DejaVuSans-52" d="M 2841 2188 
Q 3044 2119 3236 1894 
Q 3428 1669 3622 1275 
L 4263 0 
L 3584 0 
L 2988 1197 
Q 2756 1666 2539 1819 
Q 2322 1972 1947 1972 
L 1259 1972 
L 1259 0 
L 628 0 
L 628 4666 
L 2053 4666 
Q 2853 4666 3247 4331 
Q 3641 3997 3641 3322 
Q 3641 2881 3436 2590 
Q 3231 2300 2841 2188 
z
M 1259 4147 
L 1259 2491 
L 2053 2491 
Q 2509 2491 2742 2702 
Q 2975 2913 2975 3322 
Q 2975 3731 2742 3939 
Q 2509 4147 2053 4147 
L 1259 4147 
z
" transform="scale(0.015625)"/>
      <path id="DejaVuSans-20" transform="scale(0.015625)"/>
      <path id="DejaVuSans-3d" d="M 678 2906 
L 4684 2906 
L 4684 2381 
L 678 2381 
L 678 2906 
z
M 678 1631 
L 4684 1631 
L 4684 1100 
L 678 1100 
L 678 1631 
z
" transform="scale(0.015625)"/>
      <path id="DejaVuSans-2c" d="M 750 794 
L 1409 794 
L 1409 256 
L 897 -744 
L 494 -744 
L 750 256 
L 750 794 
z
" transform="scale(0.015625)"/>
      <path id="DejaVuSans-39" d="M 703 97 
L 703 672 
Q 941 559 1184 500 
Q 1428 441 1663 441 
Q 2288 441 2617 861 
Q 2947 1281 2994 2138 
Q 2813 1869 2534 1725 
Q 2256 1581 1919 1581 
Q 1219 1581 811 2004 
Q 403 2428 403 3163 
Q 403 3881 828 4315 
Q 1253 4750 1959 4750 
Q 2769 4750 3195 4129 
Q 3622 3509 3622 2328 
Q 3622 1225 3098 567 
Q 2575 -91 1691 -91 
Q 1453 -91 1209 -44 
Q 966 3 703 97 
z
M 1959 2075 
Q 2384 2075 2632 2365 
Q 2881 2656 2881 3163 
Q 2881 3666 2632 3958 
Q 2384 4250 1959 4250 
Q 1534 4250 1286 3958 
Q 1038 3666 1038 3163 
Q 1038 2656 1286 2365 
Q 1534 2075 1959 2075 
z
" transform="scale(0.015625)"/>
      <path id="DejaVuSans-2d" d="M 313 2009 
L 1997 2009 
L 1997 1497 
L 313 1497 
L 313 2009 
z
" transform="scale(0.015625)"/>
     </defs>
     <use xlink:href="#DejaVuSans-52"/>
     <use xlink:href="#DejaVuSans-68" x="69.482422"/>
     <use xlink:href="#DejaVuSans-6f" x="132.861328"/>
     <use xlink:href="#DejaVuSans-20" x="194.042969"/>
     <use xlink:href="#DejaVuSans-3d" x="225.830078"/>
     <use xlink:href="#DejaVuSans-20" x="309.619141"/>
     <use xlink:href="#DejaVuSans-30" x="341.40625"/>
     <use xlink:href="#DejaVuSans-2e" x="405.029297"/>
     <use xlink:href="#DejaVuSans-34" x="436.816406"/>
     <use xlink:href="#DejaVuSans-34" x="500.439453"/>
     <use xlink:href="#DejaVuSans-2c" x="564.0625"/>
     <use xlink:href="#DejaVuSans-20" x="595.849609"/>
     <use xlink:href="#DejaVuSans-70" x="627.636719"/>
     <use xlink:href="#DejaVuSans-20" x="691.113281"/>
     <use xlink:href="#DejaVuSans-3d" x="722.900391"/>
     <use xlink:href="#DejaVuSans-20" x="806.689453"/>
     <use xlink:href="#DejaVuSans-32" x="838.476562"/>
     <use xlink:href="#DejaVuSans-2e" x="902.099609"/>
     <use xlink:href="#DejaVuSans-36" x="933.886719"/>
     <use xlink:href="#DejaVuSans-39" x="997.509766"/>
     <use xlink:href="#DejaVuSans-65" x="1061.132812"/>
     <use xlink:href="#DejaVuSans-2d" x="1122.65625"/>
     <use xlink:href="#DejaVuSans-30" x="1158.740234"/>
     <use xlink:href="#DejaVuSans-32" x="1222.363281"/>
    </g>
    <!-- R = 0.44, p = 2.79e-02 -->
    <g transform="translate(80.387188 77.395562) scale(0.16 -0.16)">
     <defs>
      <path id="DejaVuSans-37" d="M 525 4666 
L 3525 4666 
L 3525 4397 
L 1831 0 
L 1172 0 
L 2766 4134 
L 525 4134 
L 525 4666 
z
" transform="scale(0.015625)"/>
     </defs>
     <use xlink:href="#DejaVuSans-52"/>
     <use xlink:href="#DejaVuSans-20" x="69.482422"/>
     <use xlink:href="#DejaVuSans-3d" x="101.269531"/>
     <use xlink:href="#DejaVuSans-20" x="185.058594"/>
     <use xlink:href="#DejaVuSans-30" x="216.845703"/>
     <use xlink:href="#DejaVuSans-2e" x="280.46875"/>
     <use xlink:href="#DejaVuSans-34" x="312.255859"/>
     <use xlink:href="#DejaVuSans-34" x="375.878906"/>
     <use xlink:href="#DejaVuSans-2c" x="439.501953"/>
     <use xlink:href="#DejaVuSans-20" x="471.289062"/>
     <use xlink:href="#DejaVuSans-70" x="503.076172"/>
     <use xlink:href="#DejaVuSans-20" x="566.552734"/>
     <use xlink:href="#DejaVuSans-3d" x="598.339844"/>
     <use xlink:href="#DejaVuSans-20" x="682.128906"/>
     <use xlink:href="#DejaVuSans-32" x="713.916016"/>
     <use xlink:href="#DejaVuSans-2e" x="777.539062"/>
     <use xlink:href="#DejaVuSans-37" x="809.326172"/>
     <use xlink:href="#DejaVuSans-39" x="872.949219"/>
     <use xlink:href="#DejaVuSans-65" x="936.572266"/>
     <use xlink:href="#DejaVuSans-2d" x="998.095703"/>
     <use xlink:href="#DejaVuSans-30" x="1034.179688"/>
     <use xlink:href="#DejaVuSans-32" x="1097.802734"/>
    </g>
   </g>
   <g id="text_13">
    <!-- Fornix DBS -->
    <g transform="translate(194.18125 22.396875) scale(0.2 -0.2)">
     <defs>
      <path id="DejaVuSans-46" d="M 628 4666 
L 3309 4666 
L 3309 4134 
L 1259 4134 
L 1259 2759 
L 3109 2759 
L 3109 2228 
L 1259 2228 
L 1259 0 
L 628 0 
L 628 4666 
z
" transform="scale(0.015625)"/>
      <path id="DejaVuSans-78" d="M 3513 3500 
L 2247 1797 
L 3578 0 
L 2900 0 
L 1881 1375 
L 863 0 
L 184 0 
L 1544 1831 
L 300 3500 
L 978 3500 
L 1906 2253 
L 2834 3500 
L 3513 3500 
z
" transform="scale(0.015625)"/>
      <path id="DejaVuSans-42" d="M 1259 2228 
L 1259 519 
L 2272 519 
Q 2781 519 3026 730 
Q 3272 941 3272 1375 
Q 3272 1813 3026 2020 
Q 2781 2228 2272 2228 
L 1259 2228 
z
M 1259 4147 
L 1259 2741 
L 2194 2741 
Q 2656 2741 2882 2914 
Q 3109 3088 3109 3444 
Q 3109 3797 2882 3972 
Q 2656 4147 2194 4147 
L 1259 4147 
z
M 628 4666 
L 2241 4666 
Q 2963 4666 3353 4366 
Q 3744 4066 3744 3513 
Q 3744 3084 3544 2831 
Q 3344 2578 2956 2516 
Q 3422 2416 3680 2098 
Q 3938 1781 3938 1306 
Q 3938 681 3513 340 
Q 3088 0 2303 0 
L 628 0 
L 628 4666 
z
" transform="scale(0.015625)"/>
     </defs>
     <use xlink:href="#DejaVuSans-46"/>
     <use xlink:href="#DejaVuSans-6f" x="53.894531"/>
     <use xlink:href="#DejaVuSans-72" x="115.076172"/>
     <use xlink:href="#DejaVuSans-6e" x="154.439453"/>
     <use xlink:href="#DejaVuSans-69" x="217.818359"/>
     <use xlink:href="#DejaVuSans-78" x="245.601562"/>
     <use xlink:href="#DejaVuSans-20" x="304.78125"/>
     <use xlink:href="#DejaVuSans-44" x="336.568359"/>
     <use xlink:href="#DejaVuSans-42" x="413.570312"/>
     <use xlink:href="#DejaVuSans-53" x="480.423828"/>
    </g>
   </g>
  </g>
 </g>
 <defs>
  <clipPath id="p0c635d9d24">
   <rect x="61.7" y="28.396875" width="373.74375" height="378.49375"/>
  </clipPath>
 </defs>
</svg>
